<svg xmlns="http://www.w3.org/2000/svg" xmlns:xlink="http://www.w3.org/1999/xlink" style="isolation:isolate" viewBox="0 0 40 40" width="40pt" height="40pt"><defs><clipPath id="_clipPath_Z7TKN5XlpPv87ZZu2qBHD6GL0tP2YiJC"><rect width="40" height="40"/></clipPath></defs><g clip-path="url(#_clipPath_Z7TKN5XlpPv87ZZu2qBHD6GL0tP2YiJC)"><path d=" M 30.352 2 C 30.004 1.996 29.693 2.236 29.585 2.592 L 25.628 15.714 L 14.372 15.714 L 10.416 2.592 C 10.31 2.247 10.014 2.01 9.676 2 C 9.338 1.993 9.033 2.215 8.912 2.556 L 4.144 16.264 C 4.141 16.264 4.141 16.267 4.138 16.27 L 1.751 23.127 C 1.626 23.488 1.741 23.895 2.031 24.121 L 19.528 37.829 L 19.531 37.836 C 19.534 37.836 19.534 37.836 19.534 37.84 L 19.566 37.859 C 19.578 37.866 19.586 37.877 19.599 37.883 C 19.602 37.883 19.602 37.886 19.606 37.886 C 19.606 37.886 19.609 37.889 19.612 37.889 C 19.615 37.893 19.618 37.896 19.624 37.896 L 19.637 37.907 C 19.653 37.913 19.671 37.924 19.689 37.93 L 19.689 37.933 L 19.742 37.953 C 19.746 37.953 19.746 37.953 19.749 37.956 C 19.762 37.96 19.776 37.964 19.789 37.97 C 19.795 37.97 19.801 37.973 19.811 37.973 C 19.811 37.977 19.811 37.977 19.811 37.973 C 19.827 37.98 19.842 37.983 19.857 37.986 L 19.919 37.997 C 19.951 37.997 19.984 38 20.016 38 C 20.047 37.997 20.075 37.997 20.103 37.99 C 20.116 37.99 20.124 37.99 20.137 37.986 L 20.143 37.986 C 20.15 37.983 20.152 37.983 20.159 37.983 C 20.162 37.983 20.165 37.98 20.171 37.98 C 20.178 37.977 20.187 37.977 20.193 37.973 C 20.203 37.97 20.214 37.967 20.225 37.963 C 20.23 37.963 20.233 37.963 20.236 37.96 L 20.246 37.96 C 20.274 37.95 20.301 37.938 20.327 37.923 C 20.33 37.923 20.33 37.923 20.333 37.919 C 20.336 37.919 20.339 37.919 20.342 37.916 L 20.361 37.907 C 20.378 37.897 20.394 37.887 20.411 37.876 C 20.416 37.873 20.419 37.87 20.423 37.866 C 20.426 37.866 20.429 37.863 20.432 37.863 C 20.445 37.853 20.457 37.846 20.47 37.836 L 20.476 37.826 L 37.972 24.122 C 38.261 23.894 38.373 23.489 38.249 23.128 L 35.868 16.294 C 35.865 16.286 35.862 16.278 35.862 16.27 L 31.088 2.556 C 30.973 2.225 30.681 2.005 30.353 2 L 30.352 2 Z  M 6.528 17.429 L 13.216 17.429 L 17.874 32.871 L 6.528 17.429 Z  M 26.784 17.429 L 33.473 17.429 L 22.126 32.871 L 26.784 17.429 Z  M 5.132 18.293 L 15.773 32.773 L 3.455 23.121 L 5.132 18.293 Z  M 34.868 18.293 L 36.546 23.121 L 24.227 32.773 L 34.868 18.293 Z " fill="rgb(34,41,51)"/></g></svg>