    <svg xmlns="http://www.w3.org/2000/svg" xmlns:xlink="http://www.w3.org/1999/xlink" style="isolation:isolate" viewBox="0 0 40 40" width="40pt" height="40pt"><defs><clipPath id="_clipPath_6OzCjBVwUk5kkA22y98B5Z7M1vjWVLxF"><rect width="40" height="40"/></clipPath></defs><g clip-path="url(#_clipPath_6OzCjBVwUk5kkA22y98B5Z7M1vjWVLxF)"><g><path d=" M 948.949 689.011 C 946.232 689.011 944 691.207 944 693.88 L 944 720.154 C 944 722.815 946.232 725.011 948.949 725.011 L 975.66 725.011 C 978.366 725.011 980.598 722.815 980.598 720.154 L 980.598 693.88 C 980.598 691.207 978.366 689.011 975.66 689.011 L 948.949 689.011 Z  M 948.949 691.781 L 975.66 691.781 C 976.848 691.781 977.783 692.7 977.783 693.88 L 977.783 720.154 C 977.788 720.709 977.566 721.244 977.167 721.636 C 976.768 722.029 976.225 722.247 975.66 722.242 L 948.949 722.242 C 948.383 722.25 947.837 722.032 947.436 721.639 C 947.034 721.247 946.811 720.711 946.815 720.154 L 946.815 693.88 C 946.815 692.7 947.75 691.781 948.949 691.781 Z  M 952.446 694.55 C 950.897 694.55 949.63 695.796 949.63 697.319 C 949.63 698.842 950.897 700.088 952.446 700.088 C 953.994 700.088 955.261 698.842 955.261 697.319 C 955.261 695.796 953.994 694.55 952.446 694.55 Z  M 949.63 702.858 L 949.63 719.473 L 955.261 719.473 L 955.261 702.858 L 949.63 702.858 Z  M 958.076 702.858 L 958.076 719.473 L 963.707 719.473 L 963.707 712.051 C 963.707 709.747 963.926 707.682 966.742 707.682 C 969.515 707.682 969.337 710.16 969.337 712.204 L 969.337 719.473 L 974.968 719.473 L 974.968 711.276 C 974.968 706.513 973.954 702.858 968.467 702.858 C 965.829 702.858 964.498 703.896 963.771 705.281 L 963.707 705.281 L 963.707 702.858 L 958.076 702.858 Z " fill="rgb(34,41,51)"/><path d=" M 1042.15 689.011 C 1032.085 689.011 1023.85 697.373 1023.85 707.592 C 1023.85 715.489 1028.729 722.223 1035.516 724.932 C 1036.202 724.778 1036.812 724.158 1036.812 723.384 L 1036.812 719.979 L 1034.828 719.979 C 1033.381 719.979 1032.16 719.284 1031.553 718.198 C 1031.397 717.889 1031.246 717.502 1031.094 717.115 C 1030.79 716.263 1030.409 715.334 1029.647 714.792 C 1029.339 714.56 1029.188 714.094 1029.265 713.707 C 1029.417 713.319 1029.798 713.011 1030.483 713.09 C 1031.246 713.165 1032.389 714.019 1033.078 714.947 C 1033.685 715.721 1034.144 716.187 1035.058 716.187 L 1035.287 716.187 C 1035.972 716.187 1037.653 716.187 1037.956 715.875 C 1038.185 715.567 1038.337 715.334 1038.566 715.101 C 1033.991 714.173 1031.397 711.463 1031.397 707.359 C 1031.397 705.965 1031.779 704.574 1032.619 703.334 C 1032.315 702.173 1031.628 699.155 1033.078 697.836 L 1033.303 697.606 L 1033.611 697.606 C 1035.591 697.606 1037.042 698.456 1037.956 699.155 C 1040.625 698.148 1043.674 698.148 1046.343 699.155 C 1047.183 698.456 1048.63 697.606 1050.689 697.606 L 1050.996 697.606 L 1051.221 697.836 C 1052.672 699.23 1051.984 702.173 1051.68 703.334 C 1052.443 704.574 1052.902 705.965 1052.902 707.36 C 1052.902 711.463 1050.307 714.173 1045.81 715.102 C 1046.954 716.34 1047.564 718.198 1047.564 719.671 L 1047.564 723.463 C 1047.564 724.237 1048.097 724.857 1048.86 725.011 C 1055.569 722.223 1060.449 715.489 1060.449 707.592 C 1060.449 697.373 1052.214 689.011 1042.15 689.011 Z " fill="rgb(34,41,51)"/><path d=" M 1132.352 689.012 C 1132.004 689.007 1131.693 689.247 1131.585 689.604 L 1127.628 702.726 L 1116.372 702.726 L 1112.416 689.604 C 1112.31 689.258 1112.014 689.021 1111.676 689.012 C 1111.338 689.005 1111.033 689.227 1110.912 689.567 L 1106.144 703.275 C 1106.141 703.275 1106.141 703.279 1106.138 703.281 L 1103.751 710.138 C 1103.626 710.5 1103.741 710.907 1104.031 711.133 L 1121.528 724.841 L 1121.531 724.848 C 1121.534 724.848 1121.534 724.848 1121.534 724.851 L 1121.566 724.871 C 1121.578 724.878 1121.586 724.888 1121.599 724.894 C 1121.602 724.894 1121.602 724.897 1121.606 724.897 C 1121.606 724.897 1121.609 724.901 1121.612 724.901 C 1121.615 724.904 1121.618 724.908 1121.624 724.908 L 1121.637 724.918 C 1121.653 724.924 1121.671 724.935 1121.689 724.941 L 1121.689 724.945 L 1121.742 724.964 C 1121.746 724.964 1121.746 724.964 1121.749 724.968 C 1121.762 724.971 1121.776 724.976 1121.789 724.981 C 1121.795 724.981 1121.801 724.985 1121.811 724.985 C 1121.811 724.988 1121.811 724.988 1121.811 724.985 C 1121.827 724.992 1121.842 724.994 1121.857 724.998 L 1121.919 725.008 C 1121.951 725.008 1121.984 725.011 1122.016 725.011 C 1122.047 725.008 1122.075 725.008 1122.103 725.001 C 1122.116 725.001 1122.124 725.001 1122.137 724.998 L 1122.143 724.998 C 1122.15 724.994 1122.152 724.994 1122.159 724.994 C 1122.162 724.994 1122.165 724.992 1122.171 724.992 C 1122.178 724.988 1122.187 724.988 1122.193 724.985 C 1122.203 724.982 1122.214 724.978 1122.225 724.975 C 1122.23 724.975 1122.233 724.975 1122.236 724.971 L 1122.246 724.971 C 1122.274 724.961 1122.301 724.949 1122.327 724.934 C 1122.33 724.934 1122.33 724.934 1122.333 724.931 C 1122.336 724.931 1122.339 724.931 1122.342 724.927 L 1122.361 724.918 C 1122.378 724.908 1122.394 724.898 1122.411 724.887 C 1122.416 724.885 1122.419 724.881 1122.423 724.878 C 1122.426 724.878 1122.429 724.874 1122.432 724.874 C 1122.445 724.864 1122.457 724.857 1122.47 724.848 L 1122.476 724.837 L 1139.972 711.133 C 1140.261 710.905 1140.373 710.5 1140.249 710.139 L 1137.868 703.305 C 1137.865 703.298 1137.862 703.29 1137.862 703.281 L 1133.088 689.567 C 1132.973 689.236 1132.681 689.016 1132.353 689.012 L 1132.352 689.012 Z  M 1108.528 704.44 L 1115.216 704.44 L 1119.874 719.882 L 1108.528 704.44 Z  M 1128.784 704.44 L 1135.473 704.44 L 1124.126 719.882 L 1128.784 704.44 Z  M 1107.132 705.304 L 1117.773 719.785 L 1105.455 710.132 L 1107.132 705.304 Z  M 1136.868 705.304 L 1138.546 710.132 L 1126.227 719.785 L 1136.868 705.304 Z " fill="rgb(34,41,51)"/><path d=" M 35.335 2.004 C 34.89 2.04 34.454 2.156 34.043 2.348 L 34.037 2.348 C 33.642 2.522 31.766 3.401 28.913 4.733 L 18.689 9.526 C 11.353 12.965 4.142 16.35 4.142 16.35 L 4.228 16.313 C 4.228 16.313 3.731 16.495 3.211 16.892 C 2.89 17.119 2.614 17.416 2.4 17.766 C 2.145 18.182 1.94 18.819 2.016 19.477 C 2.141 20.591 2.789 21.258 3.254 21.627 C 3.725 22 4.174 22.174 4.174 22.174 L 4.185 22.174 L 10.948 24.71 C 11.251 25.794 13.008 32.227 13.431 33.708 C 13.68 34.593 13.922 35.147 14.226 35.569 C 14.372 35.785 14.544 35.966 14.751 36.111 C 14.858 36.18 14.972 36.235 15.091 36.274 L 15.022 36.256 C 15.043 36.262 15.059 36.28 15.075 36.286 C 15.13 36.303 15.167 36.31 15.238 36.322 C 16.309 36.683 17.169 35.943 17.169 35.943 L 17.217 35.899 L 21.21 31.852 L 27.902 37.568 L 28.054 37.64 C 29.449 38.322 30.862 37.942 31.608 37.273 C 32.36 36.599 32.652 35.738 32.652 35.738 L 32.701 35.599 L 37.872 6.105 C 38.019 5.377 38.056 4.696 37.894 4.034 C 37.727 3.365 37.341 2.789 36.813 2.42 C 36.369 2.12 35.854 1.974 35.335 2.004 Z  M 35.195 5.164 C 35.189 5.262 35.206 5.251 35.167 5.437 L 35.167 5.454 L 30.044 34.641 C 30.022 34.683 29.985 34.774 29.882 34.865 C 29.774 34.96 29.688 35.021 29.238 34.822 L 21.053 27.836 L 16.109 32.853 L 17.148 25.467 L 30.521 11.591 C 31.072 11.02 30.888 10.9 30.888 10.9 C 30.927 10.2 30.055 10.695 30.055 10.695 L 13.193 22.325 L 13.187 22.294 L 5.105 19.265 L 5.105 19.258 L 5.084 19.254 C 5.098 19.249 5.112 19.242 5.125 19.235 L 5.17 19.211 L 5.213 19.194 C 5.213 19.194 12.429 15.808 19.765 12.369 C 23.438 10.647 27.139 8.913 29.985 7.574 C 31.673 6.783 33.362 5.997 35.054 5.215 C 35.167 5.166 35.113 5.166 35.195 5.166 L 35.195 5.164 Z " fill="rgb(34,41,51)"/></g></g></svg>