<?xml version="1.0" encoding="UTF-8" standalone="no"?><!-- Generator: Gravit.io --><svg xmlns="http://www.w3.org/2000/svg" xmlns:xlink="http://www.w3.org/1999/xlink" style="isolation:isolate" viewBox="0 0 40 40" width="40pt" height="40pt"><defs><clipPath id="_clipPath_lwDMMT5rk2TKErtNNe2Wg2vd7L8ZGdjK"><rect width="40" height="40"/></clipPath></defs><g clip-path="url(#_clipPath_lwDMMT5rk2TKErtNNe2Wg2vd7L8ZGdjK)"><rect x="0" y="0" width="40" height="40" transform="matrix(1,0,0,1,0,0)" fill="none"/><path d=" M 20.066 1.458 C 9.924 1.466 1.703 9.686 1.695 19.829 C 1.695 23.495 2.877 26.85 4.719 29.721 L 1.562 38.542 L 11.39 35.772 C 13.995 37.197 16.887 38.2 20.066 38.2 C 30.202 38.2 38.437 29.964 38.437 19.829 C 38.437 9.694 30.202 1.458 20.066 1.458 Z  M 20.066 4.284 C 28.667 4.284 35.611 11.229 35.611 19.829 C 35.619 25.441 32.598 30.62 27.709 33.376 C 22.82 36.131 16.825 36.034 12.028 33.121 L 11.511 32.802 L 6.068 34.325 L 7.834 29.424 L 7.405 28.828 C 4.024 24.092 3.576 17.863 6.244 12.691 C 8.912 7.52 14.248 4.275 20.066 4.284 Z  M 13.176 9.937 C 12.667 9.958 12.192 10.199 11.876 10.598 C 11.432 11.118 10.174 12.387 10.174 14.971 C 10.174 17.543 11.918 20.038 12.161 20.391 C 12.404 20.745 15.595 26.033 20.476 28.308 C 21.635 28.848 22.539 29.17 23.246 29.41 C 24.416 29.809 25.479 29.755 26.315 29.622 C 27.254 29.467 29.198 28.35 29.605 27.127 C 30.001 25.9 30.015 24.851 29.882 24.631 C 29.769 24.41 29.438 24.278 28.955 24.023 C 28.469 23.76 26.072 22.489 25.631 22.325 C 25.191 22.135 24.857 22.059 24.529 22.579 C 24.051 23.288 23.538 23.973 22.992 24.631 C 22.706 24.984 22.426 25.027 21.946 24.764 C 21.446 24.498 19.88 23.947 18.023 22.158 C 16.947 21.089 16.035 19.866 15.318 18.529 C 15.033 18 15.287 17.723 15.53 17.469 C 15.751 17.226 16.013 16.85 16.257 16.542 C 16.5 16.242 16.579 16.011 16.743 15.669 C 16.878 15.376 16.867 15.036 16.712 14.753 C 16.579 14.487 15.606 11.904 15.208 10.855 C 14.812 9.838 14.402 9.974 14.106 9.962 C 13.829 9.937 13.498 9.937 13.176 9.937 Z " fill="rgb(34,41,51)"/></g></svg>