<svg xmlns="http://www.w3.org/2000/svg" xmlns:xlink="http://www.w3.org/1999/xlink" style="isolation:isolate" viewBox="0 0 1000 1000" width="1000pt" height="1000pt"><defs><clipPath id="_clipPath_2mTz09hqyKUu2X7KAmYx1jjapAqFDu4Z"><rect width="1000" height="1000"/></clipPath></defs><g clip-path="url(#_clipPath_2mTz09hqyKUu2X7KAmYx1jjapAqFDu4Z)"><rect width="1000" height="1000" style="fill:rgb(28,30,38)" fill-opacity="0"/><g><linearGradient id="_lgradient_0" x1="0.15273311897106057" y1="0.7054794520547939" x2="1" y2="0.49999999999999956" gradientTransform="matrix(311.111,0,0,146,383,530)" gradientUnits="userSpaceOnUse"><stop offset="0%" stop-opacity="1" style="stop-color:rgb(85,149,244)"/><stop offset="100%" stop-opacity="1" style="stop-color:rgb(105,255,230)"/></linearGradient><path d=" M 638.75 566 Q 663.375 566.75 679 583 Q 694.625 599.25 694 621 Q 695.403 640.774 679 659 Q 665.5 674 637.75 676 L 428 676 Q 405.875 646.813 396 623 Q 386.125 599.188 383 566 L 386 530 L 403 540 Q 405.625 552.5 413 559 Q 420.375 565.5 432 566 L 638.75 566 Z " fill="url(#_lgradient_0)"/><linearGradient id="_lgradient_1" x1="0" y1="0.5" x2="1" y2="0.5" gradientTransform="matrix(840,0,0,770,75,115)" gradientUnits="userSpaceOnUse"><stop offset="1.3043478260869565%" stop-opacity="1" style="stop-color:rgb(84,215,227)"/><stop offset="98.69565217391305%" stop-opacity="1" style="stop-color:rgb(85,149,244)"/></linearGradient><path d=" M 293 202 Q 294.375 165.063 319 141 Q 343.625 116.938 383 115 L 829 115 Q 865.734 117.391 889 141 Q 912.266 164.609 915 202 L 915 798 Q 913.25 834.75 890 858 Q 866.75 881.25 829 885 L 162 885 Q 127.028 883.579 103 861 Q 78.125 837.625 75 799 L 75 202 L 75 156 Q 76.969 138.469 89 127 Q 99.91 116.6 118 116 Q 137.462 116.285 149 128 Q 161.203 140.391 162 157 L 162 769 Q 163.057 782.295 171 790 Q 179.344 798.094 191 798 L 799 798 Q 810.969 798 819 790 Q 827.031 782 828 769 L 828 231 Q 827.139 219.139 818 210 Q 809.75 201.75 798 202 L 433 202 Q 419.813 201.992 412 210 Q 403.73 218.477 403 232 L 403 566 Q 401.826 603.589 413 629 Q 427.594 662.188 450.469 676 L 403 676 Q 357.053 675.746 326 645 Q 294.375 613.688 293 568 L 293 202 Z " fill="url(#_lgradient_1)"/></g></g></svg>