<?xml version="1.0" encoding="UTF-8" standalone="no"?><!-- Generator: Gravit.io --><svg xmlns="http://www.w3.org/2000/svg" xmlns:xlink="http://www.w3.org/1999/xlink" style="isolation:isolate" viewBox="0 0 2000 1000" width="2000pt" height="1000pt"><defs><clipPath id="_clipPath_35iUj7Uz08xCQPcVG0Fp7pLZOkmTTia0"><rect width="2000" height="1000"/></clipPath></defs><g clip-path="url(#_clipPath_35iUj7Uz08xCQPcVG0Fp7pLZOkmTTia0)"><g opacity="0.75"><clipPath id="_clipPath_CUo2KJ7rTyUar1PaZYOkwdUTgzoYl9FS"><rect x="0" y="0" width="2000" height="1000" transform="matrix(1,0,0,1,0,0)" fill="rgb(255,255,255)"/></clipPath><g clip-path="url(#_clipPath_CUo2KJ7rTyUar1PaZYOkwdUTgzoYl9FS)"><g><g><g><g><mask id="_mask_RudotlGHmP76ZFfhQvSNXYW7eY5vDIm2" x="-200%" y="-200%" width="400%" height="400%"><rect x="-200%" y="-200%" width="400%" height="400%" style="fill:white;"/><path d=" M 1224 695.206 Q 1416.06 345.618 1612 695.206 Q 1807.94 1044.794 2000 695.206" fill="black" stroke="none"/></mask><path d=" M 1224 695.206 Q 1416.06 345.618 1612 695.206 Q 1807.94 1044.794 2000 695.206" fill="none" mask="url(#_mask_RudotlGHmP76ZFfhQvSNXYW7eY5vDIm2)" vector-effect="non-scaling-stroke" stroke-width="10" stroke="rgb(225,140,76)" stroke-opacity="100" stroke-linejoin="miter" stroke-linecap="square" stroke-miterlimit="3"/><path d=" M 1224 695.206 Q 1416.06 345.618 1612 695.206 Q 1807.94 1044.794 2000 695.206" fill="none"/><mask id="_mask_IZcJidGJQMAaLLl4l4DId5parf4ZdVq0" x="-200%" y="-200%" width="400%" height="400%"><rect x="-200%" y="-200%" width="400%" height="400%" style="fill:white;"/><path d=" M 448 695.206 Q 640.06 345.618 836 695.206 Q 1031.94 1044.794 1224 695.206" fill="black" stroke="none"/></mask><path d=" M 448 695.206 Q 640.06 345.618 836 695.206 Q 1031.94 1044.794 1224 695.206" fill="none" mask="url(#_mask_IZcJidGJQMAaLLl4l4DId5parf4ZdVq0)" vector-effect="non-scaling-stroke" stroke-width="10" stroke="rgb(225,140,76)" stroke-opacity="100" stroke-linejoin="miter" stroke-linecap="square" stroke-miterlimit="3"/><path d=" M 448 695.206 Q 640.06 345.618 836 695.206 Q 1031.94 1044.794 1224 695.206" fill="none"/><mask id="_mask_mbFw1jzPReedSNUaLCa36SSLN0HcDico" x="-200%" y="-200%" width="400%" height="400%"><rect x="-200%" y="-200%" width="400%" height="400%" style="fill:white;"/><path d=" M -328 695.206 Q -135.94 345.618 60 695.206 Q 255.94 1044.794 448 695.206" fill="black" stroke="none"/></mask><path d=" M -328 695.206 Q -135.94 345.618 60 695.206 Q 255.94 1044.794 448 695.206" fill="none" mask="url(#_mask_mbFw1jzPReedSNUaLCa36SSLN0HcDico)" vector-effect="non-scaling-stroke" stroke-width="10" stroke="rgb(225,140,76)" stroke-opacity="100" stroke-linejoin="miter" stroke-linecap="square" stroke-miterlimit="3"/><path d=" M -328 695.206 Q -135.94 345.618 60 695.206 Q 255.94 1044.794 448 695.206" fill="none"/><mask id="_mask_v9nwRJKOE5NFxxC0To8Swxq9ssjSqUF0" x="-200%" y="-200%" width="400%" height="400%"><rect x="-200%" y="-200%" width="400%" height="400%" style="fill:white;"/><path d=" M -1104 695.206 Q -911.94 345.618 -716 695.206 Q -520.06 1044.794 -328 695.206" fill="black" stroke="none"/></mask><path d=" M -1104 695.206 Q -911.94 345.618 -716 695.206 Q -520.06 1044.794 -328 695.206" fill="none" mask="url(#_mask_v9nwRJKOE5NFxxC0To8Swxq9ssjSqUF0)" vector-effect="non-scaling-stroke" stroke-width="10" stroke="rgb(225,140,76)" stroke-opacity="100" stroke-linejoin="miter" stroke-linecap="square" stroke-miterlimit="3"/><path d=" M -1104 695.206 Q -911.94 345.618 -716 695.206 Q -520.06 1044.794 -328 695.206" fill="none"/></g><g><mask id="_mask_qu5t1toyTb934AojZovKr7nVQJvliXeX" x="-200%" y="-200%" width="400%" height="400%"><rect x="-200%" y="-200%" width="400%" height="400%" style="fill:white;"/><path d=" M 1254 695.206 Q 1446.06 345.618 1642 695.206 Q 1837.94 1044.794 2030 695.206" fill="black" stroke="none"/></mask><path d=" M 1254 695.206 Q 1446.06 345.618 1642 695.206 Q 1837.94 1044.794 2030 695.206" fill="none" mask="url(#_mask_qu5t1toyTb934AojZovKr7nVQJvliXeX)" vector-effect="non-scaling-stroke" stroke-width="8" stroke="rgb(225,140,76)" stroke-opacity="100" stroke-linejoin="miter" stroke-linecap="square" stroke-miterlimit="3"/><path d=" M 1254 695.206 Q 1446.06 345.618 1642 695.206 Q 1837.94 1044.794 2030 695.206" fill="none"/><mask id="_mask_ORTSotyXwVWaSsXbK8T2atfTCv5pSVC0" x="-200%" y="-200%" width="400%" height="400%"><rect x="-200%" y="-200%" width="400%" height="400%" style="fill:white;"/><path d=" M 478 695.206 Q 670.06 345.618 866 695.206 Q 1061.94 1044.794 1254 695.206" fill="black" stroke="none"/></mask><path d=" M 478 695.206 Q 670.06 345.618 866 695.206 Q 1061.94 1044.794 1254 695.206" fill="none" mask="url(#_mask_ORTSotyXwVWaSsXbK8T2atfTCv5pSVC0)" vector-effect="non-scaling-stroke" stroke-width="8" stroke="rgb(225,140,76)" stroke-opacity="100" stroke-linejoin="miter" stroke-linecap="square" stroke-miterlimit="3"/><path d=" M 478 695.206 Q 670.06 345.618 866 695.206 Q 1061.94 1044.794 1254 695.206" fill="none"/><mask id="_mask_msqbmIHfeAjcH3P0ew9a9krsaM1E6CKp" x="-200%" y="-200%" width="400%" height="400%"><rect x="-200%" y="-200%" width="400%" height="400%" style="fill:white;"/><path d=" M -298 695.206 Q -105.94 345.618 90 695.206 Q 285.94 1044.794 478 695.206" fill="black" stroke="none"/></mask><path d=" M -298 695.206 Q -105.94 345.618 90 695.206 Q 285.94 1044.794 478 695.206" fill="none" mask="url(#_mask_msqbmIHfeAjcH3P0ew9a9krsaM1E6CKp)" vector-effect="non-scaling-stroke" stroke-width="8" stroke="rgb(225,140,76)" stroke-opacity="100" stroke-linejoin="miter" stroke-linecap="square" stroke-miterlimit="3"/><path d=" M -298 695.206 Q -105.94 345.618 90 695.206 Q 285.94 1044.794 478 695.206" fill="none"/><mask id="_mask_2a7HY0wtLjhrCxISvlrThBK1KXX9T54q" x="-200%" y="-200%" width="400%" height="400%"><rect x="-200%" y="-200%" width="400%" height="400%" style="fill:white;"/><path d=" M -1074 695.206 Q -881.94 345.618 -686 695.206 Q -490.06 1044.794 -298 695.206" fill="black" stroke="none"/></mask><path d=" M -1074 695.206 Q -881.94 345.618 -686 695.206 Q -490.06 1044.794 -298 695.206" fill="none" mask="url(#_mask_2a7HY0wtLjhrCxISvlrThBK1KXX9T54q)" vector-effect="non-scaling-stroke" stroke-width="8" stroke="rgb(225,140,76)" stroke-opacity="100" stroke-linejoin="miter" stroke-linecap="square" stroke-miterlimit="3"/><path d=" M -1074 695.206 Q -881.94 345.618 -686 695.206 Q -490.06 1044.794 -298 695.206" fill="none"/></g><g><mask id="_mask_6TrUJ3iZWnLaHtnGl19LWcBGnpabsblh" x="-200%" y="-200%" width="400%" height="400%"><rect x="-200%" y="-200%" width="400%" height="400%" style="fill:white;"/><path d=" M 1284 695.206 Q 1476.06 345.618 1672 695.206 Q 1867.94 1044.794 2060 695.206" fill="black" stroke="none"/></mask><path d=" M 1284 695.206 Q 1476.06 345.618 1672 695.206 Q 1867.94 1044.794 2060 695.206" fill="none" mask="url(#_mask_6TrUJ3iZWnLaHtnGl19LWcBGnpabsblh)" vector-effect="non-scaling-stroke" stroke-width="6" stroke="rgb(225,140,76)" stroke-opacity="100" stroke-linejoin="miter" stroke-linecap="square" stroke-miterlimit="3"/><path d=" M 1284 695.206 Q 1476.06 345.618 1672 695.206 Q 1867.94 1044.794 2060 695.206" fill="none"/><mask id="_mask_6mftjP9e7dIlJwu4cOMN8qY6GsoznfcD" x="-200%" y="-200%" width="400%" height="400%"><rect x="-200%" y="-200%" width="400%" height="400%" style="fill:white;"/><path d=" M 508 695.206 Q 700.06 345.618 896 695.206 Q 1091.94 1044.794 1284 695.206" fill="black" stroke="none"/></mask><path d=" M 508 695.206 Q 700.06 345.618 896 695.206 Q 1091.94 1044.794 1284 695.206" fill="none" mask="url(#_mask_6mftjP9e7dIlJwu4cOMN8qY6GsoznfcD)" vector-effect="non-scaling-stroke" stroke-width="6" stroke="rgb(225,140,76)" stroke-opacity="100" stroke-linejoin="miter" stroke-linecap="square" stroke-miterlimit="3"/><path d=" M 508 695.206 Q 700.06 345.618 896 695.206 Q 1091.94 1044.794 1284 695.206" fill="none"/><mask id="_mask_LGUkdcV46LcyFbBu616SLKAHIwpFNKn2" x="-200%" y="-200%" width="400%" height="400%"><rect x="-200%" y="-200%" width="400%" height="400%" style="fill:white;"/><path d=" M -268 695.206 Q -75.94 345.618 120 695.206 Q 315.94 1044.794 508 695.206" fill="black" stroke="none"/></mask><path d=" M -268 695.206 Q -75.94 345.618 120 695.206 Q 315.94 1044.794 508 695.206" fill="none" mask="url(#_mask_LGUkdcV46LcyFbBu616SLKAHIwpFNKn2)" vector-effect="non-scaling-stroke" stroke-width="6" stroke="rgb(225,140,76)" stroke-opacity="100" stroke-linejoin="miter" stroke-linecap="square" stroke-miterlimit="3"/><path d=" M -268 695.206 Q -75.94 345.618 120 695.206 Q 315.94 1044.794 508 695.206" fill="none"/><mask id="_mask_C4CKWwEJJiaT3QYjQleusHMtPwXxL3DR" x="-200%" y="-200%" width="400%" height="400%"><rect x="-200%" y="-200%" width="400%" height="400%" style="fill:white;"/><path d=" M -1044 695.206 Q -851.94 345.618 -656 695.206 Q -460.06 1044.794 -268 695.206" fill="black" stroke="none"/></mask><path d=" M -1044 695.206 Q -851.94 345.618 -656 695.206 Q -460.06 1044.794 -268 695.206" fill="none" mask="url(#_mask_C4CKWwEJJiaT3QYjQleusHMtPwXxL3DR)" vector-effect="non-scaling-stroke" stroke-width="6" stroke="rgb(225,140,76)" stroke-opacity="100" stroke-linejoin="miter" stroke-linecap="square" stroke-miterlimit="3"/><path d=" M -1044 695.206 Q -851.94 345.618 -656 695.206 Q -460.06 1044.794 -268 695.206" fill="none"/></g><g><mask id="_mask_MBc7x4V2U24RObDZV1xJJYfvJmNYXM2O" x="-200%" y="-200%" width="400%" height="400%"><rect x="-200%" y="-200%" width="400%" height="400%" style="fill:white;"/><path d=" M 1314 695.206 Q 1506.06 345.618 1702 695.206 Q 1897.94 1044.794 2090 695.206" fill="black" stroke="none"/></mask><path d=" M 1314 695.206 Q 1506.06 345.618 1702 695.206 Q 1897.94 1044.794 2090 695.206" fill="none" mask="url(#_mask_MBc7x4V2U24RObDZV1xJJYfvJmNYXM2O)" vector-effect="non-scaling-stroke" stroke-width="4" stroke="rgb(225,140,76)" stroke-opacity="100" stroke-linejoin="miter" stroke-linecap="square" stroke-miterlimit="3"/><path d=" M 1314 695.206 Q 1506.06 345.618 1702 695.206 Q 1897.94 1044.794 2090 695.206" fill="none"/><mask id="_mask_jIkbzyOERawvaNVhEvQA8xmusfUIKmnI" x="-200%" y="-200%" width="400%" height="400%"><rect x="-200%" y="-200%" width="400%" height="400%" style="fill:white;"/><path d=" M 538 695.206 Q 730.06 345.618 926 695.206 Q 1121.94 1044.794 1314 695.206" fill="black" stroke="none"/></mask><path d=" M 538 695.206 Q 730.06 345.618 926 695.206 Q 1121.94 1044.794 1314 695.206" fill="none" mask="url(#_mask_jIkbzyOERawvaNVhEvQA8xmusfUIKmnI)" vector-effect="non-scaling-stroke" stroke-width="4" stroke="rgb(225,140,76)" stroke-opacity="100" stroke-linejoin="miter" stroke-linecap="square" stroke-miterlimit="3"/><path d=" M 538 695.206 Q 730.06 345.618 926 695.206 Q 1121.94 1044.794 1314 695.206" fill="none"/><mask id="_mask_Px2tLPoVC80K8rWTT9NMmERREYKJZsbd" x="-200%" y="-200%" width="400%" height="400%"><rect x="-200%" y="-200%" width="400%" height="400%" style="fill:white;"/><path d=" M -238 695.206 Q -45.94 345.618 150 695.206 Q 345.94 1044.794 538 695.206" fill="black" stroke="none"/></mask><path d=" M -238 695.206 Q -45.94 345.618 150 695.206 Q 345.94 1044.794 538 695.206" fill="none" mask="url(#_mask_Px2tLPoVC80K8rWTT9NMmERREYKJZsbd)" vector-effect="non-scaling-stroke" stroke-width="4" stroke="rgb(225,140,76)" stroke-opacity="100" stroke-linejoin="miter" stroke-linecap="square" stroke-miterlimit="3"/><path d=" M -238 695.206 Q -45.94 345.618 150 695.206 Q 345.94 1044.794 538 695.206" fill="none"/><mask id="_mask_myIzhRNarMywRgEiP1zswnUTqmL2rbwQ" x="-200%" y="-200%" width="400%" height="400%"><rect x="-200%" y="-200%" width="400%" height="400%" style="fill:white;"/><path d=" M -1014 695.206 Q -821.94 345.618 -626 695.206 Q -430.06 1044.794 -238 695.206" fill="black" stroke="none"/></mask><path d=" M -1014 695.206 Q -821.94 345.618 -626 695.206 Q -430.06 1044.794 -238 695.206" fill="none" mask="url(#_mask_myIzhRNarMywRgEiP1zswnUTqmL2rbwQ)" vector-effect="non-scaling-stroke" stroke-width="4" stroke="rgb(225,140,76)" stroke-opacity="100" stroke-linejoin="miter" stroke-linecap="square" stroke-miterlimit="3"/><path d=" M -1014 695.206 Q -821.94 345.618 -626 695.206 Q -430.06 1044.794 -238 695.206" fill="none"/></g><g><mask id="_mask_aV2lrpALLWoUURDDnJxhx9x4Pt5KPLC0" x="-200%" y="-200%" width="400%" height="400%"><rect x="-200%" y="-200%" width="400%" height="400%" style="fill:white;"/><path d=" M 1344 695.206 Q 1536.06 345.618 1732 695.206 Q 1927.94 1044.794 2120 695.206" fill="black" stroke="none"/></mask><path d=" M 1344 695.206 Q 1536.06 345.618 1732 695.206 Q 1927.94 1044.794 2120 695.206" fill="none" mask="url(#_mask_aV2lrpALLWoUURDDnJxhx9x4Pt5KPLC0)" vector-effect="non-scaling-stroke" stroke-width="2" stroke="rgb(225,140,76)" stroke-opacity="100" stroke-linejoin="miter" stroke-linecap="square" stroke-miterlimit="3"/><path d=" M 1344 695.206 Q 1536.06 345.618 1732 695.206 Q 1927.94 1044.794 2120 695.206" fill="none"/><mask id="_mask_zSGfBKPfqSiFVdBqQj0CJFhaqq5mJ0IZ" x="-200%" y="-200%" width="400%" height="400%"><rect x="-200%" y="-200%" width="400%" height="400%" style="fill:white;"/><path d=" M 568 695.206 Q 760.06 345.618 956 695.206 Q 1151.94 1044.794 1344 695.206" fill="black" stroke="none"/></mask><path d=" M 568 695.206 Q 760.06 345.618 956 695.206 Q 1151.94 1044.794 1344 695.206" fill="none" mask="url(#_mask_zSGfBKPfqSiFVdBqQj0CJFhaqq5mJ0IZ)" vector-effect="non-scaling-stroke" stroke-width="2" stroke="rgb(225,140,76)" stroke-opacity="100" stroke-linejoin="miter" stroke-linecap="square" stroke-miterlimit="3"/><path d=" M 568 695.206 Q 760.06 345.618 956 695.206 Q 1151.94 1044.794 1344 695.206" fill="none"/><mask id="_mask_WdZzvUtb6cLH1ecXAb0Mn1napd4ugc4o" x="-200%" y="-200%" width="400%" height="400%"><rect x="-200%" y="-200%" width="400%" height="400%" style="fill:white;"/><path d=" M -208 695.206 Q -15.94 345.618 180 695.206 Q 375.94 1044.794 568 695.206" fill="black" stroke="none"/></mask><path d=" M -208 695.206 Q -15.94 345.618 180 695.206 Q 375.94 1044.794 568 695.206" fill="none" mask="url(#_mask_WdZzvUtb6cLH1ecXAb0Mn1napd4ugc4o)" vector-effect="non-scaling-stroke" stroke-width="2" stroke="rgb(225,140,76)" stroke-opacity="100" stroke-linejoin="miter" stroke-linecap="square" stroke-miterlimit="3"/><path d=" M -208 695.206 Q -15.94 345.618 180 695.206 Q 375.94 1044.794 568 695.206" fill="none"/><mask id="_mask_V0YrijzEWxIlfTRyCRu0lDil0r1CvvGY" x="-200%" y="-200%" width="400%" height="400%"><rect x="-200%" y="-200%" width="400%" height="400%" style="fill:white;"/><path d=" M -984 695.206 Q -791.94 345.618 -596 695.206 Q -400.06 1044.794 -208 695.206" fill="black" stroke="none"/></mask><path d=" M -984 695.206 Q -791.94 345.618 -596 695.206 Q -400.06 1044.794 -208 695.206" fill="none" mask="url(#_mask_V0YrijzEWxIlfTRyCRu0lDil0r1CvvGY)" vector-effect="non-scaling-stroke" stroke-width="2" stroke="rgb(225,140,76)" stroke-opacity="100" stroke-linejoin="miter" stroke-linecap="square" stroke-miterlimit="3"/><path d=" M -984 695.206 Q -791.94 345.618 -596 695.206 Q -400.06 1044.794 -208 695.206" fill="none"/></g></g><g><g><mask id="_mask_VGGDdl6AZs6VxLCqVGVon2GhJuYlFJj3" x="-200%" y="-200%" width="400%" height="400%"><rect x="-200%" y="-200%" width="400%" height="400%" style="fill:white;"/><path d=" M 329 695.206 Q 136.94 345.618 -59 695.206 Q -254.94 1044.794 -447 695.206" fill="black" stroke="none"/></mask><path d=" M 329 695.206 Q 136.94 345.618 -59 695.206 Q -254.94 1044.794 -447 695.206" fill="none" mask="url(#_mask_VGGDdl6AZs6VxLCqVGVon2GhJuYlFJj3)" vector-effect="non-scaling-stroke" stroke-width="10" stroke="rgb(225,140,76)" stroke-opacity="100" stroke-linejoin="miter" stroke-linecap="square" stroke-miterlimit="3"/><path d=" M 329 695.206 Q 136.94 345.618 -59 695.206 Q -254.94 1044.794 -447 695.206" fill="none"/><mask id="_mask_gAs1BF8QgWDapkBtGnIoEiLjIWp5Ac8N" x="-200%" y="-200%" width="400%" height="400%"><rect x="-200%" y="-200%" width="400%" height="400%" style="fill:white;"/><path d=" M 1105 695.206 Q 912.94 345.618 717 695.206 Q 521.06 1044.794 329 695.206" fill="black" stroke="none"/></mask><path d=" M 1105 695.206 Q 912.94 345.618 717 695.206 Q 521.06 1044.794 329 695.206" fill="none" mask="url(#_mask_gAs1BF8QgWDapkBtGnIoEiLjIWp5Ac8N)" vector-effect="non-scaling-stroke" stroke-width="10" stroke="rgb(225,140,76)" stroke-opacity="100" stroke-linejoin="miter" stroke-linecap="square" stroke-miterlimit="3"/><path d=" M 1105 695.206 Q 912.94 345.618 717 695.206 Q 521.06 1044.794 329 695.206" fill="none"/><mask id="_mask_9WjKS0VXI6rSUYm8ZTBQuaKa26kD2Z4q" x="-200%" y="-200%" width="400%" height="400%"><rect x="-200%" y="-200%" width="400%" height="400%" style="fill:white;"/><path d=" M 1881 695.206 Q 1688.94 345.618 1493 695.206 Q 1297.06 1044.794 1105 695.206" fill="black" stroke="none"/></mask><path d=" M 1881 695.206 Q 1688.94 345.618 1493 695.206 Q 1297.06 1044.794 1105 695.206" fill="none" mask="url(#_mask_9WjKS0VXI6rSUYm8ZTBQuaKa26kD2Z4q)" vector-effect="non-scaling-stroke" stroke-width="10" stroke="rgb(225,140,76)" stroke-opacity="100" stroke-linejoin="miter" stroke-linecap="square" stroke-miterlimit="3"/><path d=" M 1881 695.206 Q 1688.94 345.618 1493 695.206 Q 1297.06 1044.794 1105 695.206" fill="none"/><mask id="_mask_DepDfO5sO643sKiluDY2l4u5wFnTb4AS" x="-200%" y="-200%" width="400%" height="400%"><rect x="-200%" y="-200%" width="400%" height="400%" style="fill:white;"/><path d=" M 2657 695.206 Q 2464.94 345.618 2269 695.206 Q 2073.06 1044.794 1881 695.206" fill="black" stroke="none"/></mask><path d=" M 2657 695.206 Q 2464.94 345.618 2269 695.206 Q 2073.06 1044.794 1881 695.206" fill="none" mask="url(#_mask_DepDfO5sO643sKiluDY2l4u5wFnTb4AS)" vector-effect="non-scaling-stroke" stroke-width="10" stroke="rgb(225,140,76)" stroke-opacity="100" stroke-linejoin="miter" stroke-linecap="square" stroke-miterlimit="3"/><path d=" M 2657 695.206 Q 2464.94 345.618 2269 695.206 Q 2073.06 1044.794 1881 695.206" fill="none"/></g><g><mask id="_mask_oy7I0VrMGOZtANhEUPd1PS5DoCCQcEvm" x="-200%" y="-200%" width="400%" height="400%"><rect x="-200%" y="-200%" width="400%" height="400%" style="fill:white;"/><path d=" M 299 695.206 Q 106.94 345.618 -89 695.206 Q -284.94 1044.794 -477 695.206" fill="black" stroke="none"/></mask><path d=" M 299 695.206 Q 106.94 345.618 -89 695.206 Q -284.94 1044.794 -477 695.206" fill="none" mask="url(#_mask_oy7I0VrMGOZtANhEUPd1PS5DoCCQcEvm)" vector-effect="non-scaling-stroke" stroke-width="8" stroke="rgb(225,140,76)" stroke-opacity="100" stroke-linejoin="miter" stroke-linecap="square" stroke-miterlimit="3"/><path d=" M 299 695.206 Q 106.94 345.618 -89 695.206 Q -284.94 1044.794 -477 695.206" fill="none"/><mask id="_mask_UJT9XuYP7hoG1iMfprJuXsAa8egSue44" x="-200%" y="-200%" width="400%" height="400%"><rect x="-200%" y="-200%" width="400%" height="400%" style="fill:white;"/><path d=" M 1075 695.206 Q 882.94 345.618 687 695.206 Q 491.06 1044.794 299 695.206" fill="black" stroke="none"/></mask><path d=" M 1075 695.206 Q 882.94 345.618 687 695.206 Q 491.06 1044.794 299 695.206" fill="none" mask="url(#_mask_UJT9XuYP7hoG1iMfprJuXsAa8egSue44)" vector-effect="non-scaling-stroke" stroke-width="8" stroke="rgb(225,140,76)" stroke-opacity="100" stroke-linejoin="miter" stroke-linecap="square" stroke-miterlimit="3"/><path d=" M 1075 695.206 Q 882.94 345.618 687 695.206 Q 491.06 1044.794 299 695.206" fill="none"/><mask id="_mask_i2N0CUd2VfbuSwuSfXnf66atICaL7Luu" x="-200%" y="-200%" width="400%" height="400%"><rect x="-200%" y="-200%" width="400%" height="400%" style="fill:white;"/><path d=" M 1851 695.206 Q 1658.94 345.618 1463 695.206 Q 1267.06 1044.794 1075 695.206" fill="black" stroke="none"/></mask><path d=" M 1851 695.206 Q 1658.94 345.618 1463 695.206 Q 1267.06 1044.794 1075 695.206" fill="none" mask="url(#_mask_i2N0CUd2VfbuSwuSfXnf66atICaL7Luu)" vector-effect="non-scaling-stroke" stroke-width="8" stroke="rgb(225,140,76)" stroke-opacity="100" stroke-linejoin="miter" stroke-linecap="square" stroke-miterlimit="3"/><path d=" M 1851 695.206 Q 1658.94 345.618 1463 695.206 Q 1267.06 1044.794 1075 695.206" fill="none"/><mask id="_mask_wIefKQ3EIHO5YkxeCAz2pbTtQj6lbXXG" x="-200%" y="-200%" width="400%" height="400%"><rect x="-200%" y="-200%" width="400%" height="400%" style="fill:white;"/><path d=" M 2627 695.206 Q 2434.94 345.618 2239 695.206 Q 2043.06 1044.794 1851 695.206" fill="black" stroke="none"/></mask><path d=" M 2627 695.206 Q 2434.94 345.618 2239 695.206 Q 2043.06 1044.794 1851 695.206" fill="none" mask="url(#_mask_wIefKQ3EIHO5YkxeCAz2pbTtQj6lbXXG)" vector-effect="non-scaling-stroke" stroke-width="8" stroke="rgb(225,140,76)" stroke-opacity="100" stroke-linejoin="miter" stroke-linecap="square" stroke-miterlimit="3"/><path d=" M 2627 695.206 Q 2434.94 345.618 2239 695.206 Q 2043.06 1044.794 1851 695.206" fill="none"/></g><g><mask id="_mask_Ba5w02nVIz8d0PNnHxJY5h8svG5o2O4Z" x="-200%" y="-200%" width="400%" height="400%"><rect x="-200%" y="-200%" width="400%" height="400%" style="fill:white;"/><path d=" M 269 695.206 Q 76.94 345.618 -119 695.206 Q -314.94 1044.794 -507 695.206" fill="black" stroke="none"/></mask><path d=" M 269 695.206 Q 76.94 345.618 -119 695.206 Q -314.94 1044.794 -507 695.206" fill="none" mask="url(#_mask_Ba5w02nVIz8d0PNnHxJY5h8svG5o2O4Z)" vector-effect="non-scaling-stroke" stroke-width="6" stroke="rgb(225,140,76)" stroke-opacity="100" stroke-linejoin="miter" stroke-linecap="square" stroke-miterlimit="3"/><path d=" M 269 695.206 Q 76.94 345.618 -119 695.206 Q -314.94 1044.794 -507 695.206" fill="none"/><mask id="_mask_xYl3qPPUDMRuUxyyKSrwLfgNUMYhHnMU" x="-200%" y="-200%" width="400%" height="400%"><rect x="-200%" y="-200%" width="400%" height="400%" style="fill:white;"/><path d=" M 1045 695.206 Q 852.94 345.618 657 695.206 Q 461.06 1044.794 269 695.206" fill="black" stroke="none"/></mask><path d=" M 1045 695.206 Q 852.94 345.618 657 695.206 Q 461.06 1044.794 269 695.206" fill="none" mask="url(#_mask_xYl3qPPUDMRuUxyyKSrwLfgNUMYhHnMU)" vector-effect="non-scaling-stroke" stroke-width="6" stroke="rgb(225,140,76)" stroke-opacity="100" stroke-linejoin="miter" stroke-linecap="square" stroke-miterlimit="3"/><path d=" M 1045 695.206 Q 852.94 345.618 657 695.206 Q 461.06 1044.794 269 695.206" fill="none"/><mask id="_mask_T1Gvz1IW0ZjfPhEEviXTzuskFEnyvYKu" x="-200%" y="-200%" width="400%" height="400%"><rect x="-200%" y="-200%" width="400%" height="400%" style="fill:white;"/><path d=" M 1821 695.206 Q 1628.94 345.618 1433 695.206 Q 1237.06 1044.794 1045 695.206" fill="black" stroke="none"/></mask><path d=" M 1821 695.206 Q 1628.94 345.618 1433 695.206 Q 1237.06 1044.794 1045 695.206" fill="none" mask="url(#_mask_T1Gvz1IW0ZjfPhEEviXTzuskFEnyvYKu)" vector-effect="non-scaling-stroke" stroke-width="6" stroke="rgb(225,140,76)" stroke-opacity="100" stroke-linejoin="miter" stroke-linecap="square" stroke-miterlimit="3"/><path d=" M 1821 695.206 Q 1628.94 345.618 1433 695.206 Q 1237.06 1044.794 1045 695.206" fill="none"/><mask id="_mask_vkMX3gGZk3m9TQ3C8sfJawrvf2lY11jA" x="-200%" y="-200%" width="400%" height="400%"><rect x="-200%" y="-200%" width="400%" height="400%" style="fill:white;"/><path d=" M 2597 695.206 Q 2404.94 345.618 2209 695.206 Q 2013.06 1044.794 1821 695.206" fill="black" stroke="none"/></mask><path d=" M 2597 695.206 Q 2404.94 345.618 2209 695.206 Q 2013.06 1044.794 1821 695.206" fill="none" mask="url(#_mask_vkMX3gGZk3m9TQ3C8sfJawrvf2lY11jA)" vector-effect="non-scaling-stroke" stroke-width="6" stroke="rgb(225,140,76)" stroke-opacity="100" stroke-linejoin="miter" stroke-linecap="square" stroke-miterlimit="3"/><path d=" M 2597 695.206 Q 2404.94 345.618 2209 695.206 Q 2013.06 1044.794 1821 695.206" fill="none"/></g><g><mask id="_mask_dDgJYtVZl2rn0ltTdifpGbzeRTmaM6RC" x="-200%" y="-200%" width="400%" height="400%"><rect x="-200%" y="-200%" width="400%" height="400%" style="fill:white;"/><path d=" M 239 695.206 Q 46.94 345.618 -149 695.206 Q -344.94 1044.794 -537 695.206" fill="black" stroke="none"/></mask><path d=" M 239 695.206 Q 46.94 345.618 -149 695.206 Q -344.94 1044.794 -537 695.206" fill="none" mask="url(#_mask_dDgJYtVZl2rn0ltTdifpGbzeRTmaM6RC)" vector-effect="non-scaling-stroke" stroke-width="4" stroke="rgb(225,140,76)" stroke-opacity="100" stroke-linejoin="miter" stroke-linecap="square" stroke-miterlimit="3"/><path d=" M 239 695.206 Q 46.94 345.618 -149 695.206 Q -344.94 1044.794 -537 695.206" fill="none"/><mask id="_mask_y3frb4bROFOAxv8iMgmsquRQLnZQalda" x="-200%" y="-200%" width="400%" height="400%"><rect x="-200%" y="-200%" width="400%" height="400%" style="fill:white;"/><path d=" M 1015 695.206 Q 822.94 345.618 627 695.206 Q 431.06 1044.794 239 695.206" fill="black" stroke="none"/></mask><path d=" M 1015 695.206 Q 822.94 345.618 627 695.206 Q 431.06 1044.794 239 695.206" fill="none" mask="url(#_mask_y3frb4bROFOAxv8iMgmsquRQLnZQalda)" vector-effect="non-scaling-stroke" stroke-width="4" stroke="rgb(225,140,76)" stroke-opacity="100" stroke-linejoin="miter" stroke-linecap="square" stroke-miterlimit="3"/><path d=" M 1015 695.206 Q 822.94 345.618 627 695.206 Q 431.06 1044.794 239 695.206" fill="none"/><mask id="_mask_cSBtKvVYXLHkkb1fmmgeL49VcsydZ0JQ" x="-200%" y="-200%" width="400%" height="400%"><rect x="-200%" y="-200%" width="400%" height="400%" style="fill:white;"/><path d=" M 1791 695.206 Q 1598.94 345.618 1403 695.206 Q 1207.06 1044.794 1015 695.206" fill="black" stroke="none"/></mask><path d=" M 1791 695.206 Q 1598.94 345.618 1403 695.206 Q 1207.06 1044.794 1015 695.206" fill="none" mask="url(#_mask_cSBtKvVYXLHkkb1fmmgeL49VcsydZ0JQ)" vector-effect="non-scaling-stroke" stroke-width="4" stroke="rgb(225,140,76)" stroke-opacity="100" stroke-linejoin="miter" stroke-linecap="square" stroke-miterlimit="3"/><path d=" M 1791 695.206 Q 1598.94 345.618 1403 695.206 Q 1207.06 1044.794 1015 695.206" fill="none"/><mask id="_mask_bM787lKxMegQ5NIaKukDutaO9qnb20hA" x="-200%" y="-200%" width="400%" height="400%"><rect x="-200%" y="-200%" width="400%" height="400%" style="fill:white;"/><path d=" M 2567 695.206 Q 2374.94 345.618 2179 695.206 Q 1983.06 1044.794 1791 695.206" fill="black" stroke="none"/></mask><path d=" M 2567 695.206 Q 2374.94 345.618 2179 695.206 Q 1983.06 1044.794 1791 695.206" fill="none" mask="url(#_mask_bM787lKxMegQ5NIaKukDutaO9qnb20hA)" vector-effect="non-scaling-stroke" stroke-width="4" stroke="rgb(225,140,76)" stroke-opacity="100" stroke-linejoin="miter" stroke-linecap="square" stroke-miterlimit="3"/><path d=" M 2567 695.206 Q 2374.94 345.618 2179 695.206 Q 1983.06 1044.794 1791 695.206" fill="none"/></g><g><mask id="_mask_Oe6LpALGZW55nCvEkR7rinHssoTU6Gvf" x="-200%" y="-200%" width="400%" height="400%"><rect x="-200%" y="-200%" width="400%" height="400%" style="fill:white;"/><path d=" M 209 695.206 Q 16.94 345.618 -179 695.206 Q -374.94 1044.794 -567 695.206" fill="black" stroke="none"/></mask><path d=" M 209 695.206 Q 16.94 345.618 -179 695.206 Q -374.94 1044.794 -567 695.206" fill="none" mask="url(#_mask_Oe6LpALGZW55nCvEkR7rinHssoTU6Gvf)" vector-effect="non-scaling-stroke" stroke-width="2" stroke="rgb(225,140,76)" stroke-opacity="100" stroke-linejoin="miter" stroke-linecap="square" stroke-miterlimit="3"/><path d=" M 209 695.206 Q 16.94 345.618 -179 695.206 Q -374.94 1044.794 -567 695.206" fill="none"/><mask id="_mask_YBoUPwag7uTF8L985Lr0cPBtD39MYLEw" x="-200%" y="-200%" width="400%" height="400%"><rect x="-200%" y="-200%" width="400%" height="400%" style="fill:white;"/><path d=" M 985 695.206 Q 792.94 345.618 597 695.206 Q 401.06 1044.794 209 695.206" fill="black" stroke="none"/></mask><path d=" M 985 695.206 Q 792.94 345.618 597 695.206 Q 401.06 1044.794 209 695.206" fill="none" mask="url(#_mask_YBoUPwag7uTF8L985Lr0cPBtD39MYLEw)" vector-effect="non-scaling-stroke" stroke-width="2" stroke="rgb(225,140,76)" stroke-opacity="100" stroke-linejoin="miter" stroke-linecap="square" stroke-miterlimit="3"/><path d=" M 985 695.206 Q 792.94 345.618 597 695.206 Q 401.06 1044.794 209 695.206" fill="none"/><mask id="_mask_7HsHnNxFhzUJ3wIV2EDXWHAU5nQ5gPjJ" x="-200%" y="-200%" width="400%" height="400%"><rect x="-200%" y="-200%" width="400%" height="400%" style="fill:white;"/><path d=" M 1761 695.206 Q 1568.94 345.618 1373 695.206 Q 1177.06 1044.794 985 695.206" fill="black" stroke="none"/></mask><path d=" M 1761 695.206 Q 1568.94 345.618 1373 695.206 Q 1177.06 1044.794 985 695.206" fill="none" mask="url(#_mask_7HsHnNxFhzUJ3wIV2EDXWHAU5nQ5gPjJ)" vector-effect="non-scaling-stroke" stroke-width="2" stroke="rgb(225,140,76)" stroke-opacity="100" stroke-linejoin="miter" stroke-linecap="square" stroke-miterlimit="3"/><path d=" M 1761 695.206 Q 1568.94 345.618 1373 695.206 Q 1177.06 1044.794 985 695.206" fill="none"/><mask id="_mask_6GqroSHqmJWmPc7DwfUuQtOf6TSRnuea" x="-200%" y="-200%" width="400%" height="400%"><rect x="-200%" y="-200%" width="400%" height="400%" style="fill:white;"/><path d=" M 2537 695.206 Q 2344.94 345.618 2149 695.206 Q 1953.06 1044.794 1761 695.206" fill="black" stroke="none"/></mask><path d=" M 2537 695.206 Q 2344.94 345.618 2149 695.206 Q 1953.06 1044.794 1761 695.206" fill="none" mask="url(#_mask_6GqroSHqmJWmPc7DwfUuQtOf6TSRnuea)" vector-effect="non-scaling-stroke" stroke-width="2" stroke="rgb(225,140,76)" stroke-opacity="100" stroke-linejoin="miter" stroke-linecap="square" stroke-miterlimit="3"/><path d=" M 2537 695.206 Q 2344.94 345.618 2149 695.206 Q 1953.06 1044.794 1761 695.206" fill="none"/></g></g></g></g></g></g></g></svg>