<?xml version="1.0" encoding="UTF-8" standalone="no"?><!-- Generator: Gravit.io --><svg xmlns="http://www.w3.org/2000/svg" xmlns:xlink="http://www.w3.org/1999/xlink" style="isolation:isolate" viewBox="0 0 2000 1000" width="2000pt" height="1000pt"><defs><clipPath id="_clipPath_D6LgfaIdnMnliEWLaJjGvqJpoNhEVecq"><rect width="2000" height="1000"/></clipPath></defs><g clip-path="url(#_clipPath_D6LgfaIdnMnliEWLaJjGvqJpoNhEVecq)"><g opacity="0.67"><clipPath id="_clipPath_1avHkPwtEphG62wlfaWnt1fUT42bH3m7"><rect x="0" y="0" width="2000" height="1000" transform="matrix(1,0,0,1,0,0)" fill="rgb(255,255,255)"/></clipPath><g clip-path="url(#_clipPath_1avHkPwtEphG62wlfaWnt1fUT42bH3m7)"><g><g style="opacity:0.61;"><g opacity="0.61"><path d=" M 1837.82 599.77 L 1839.06 597.59 L 1843.41 600.06 L 1842.18 602.23 L 1756.78 752.93 L 1578.13 835.15 L 1387.26 556.42 L 1435.26 398.42 L 1357.41 285.1 L 1237.85 243.94 L 1113.9 398.38 L 1183.29 554.99 L 1239.63 683.77 L 1212.21 797.5 L 1135.93 851.11 L 1067.41 797.93 L 1016.61 753.97 L 924.85 798.86 L 761.31 696.38 L 1031.43 599.62 L 876.05 309.52 L 636.1 457.49 L 499.83 217.23 L 498.59 215.06 L 502.94 212.59 L 504.17 214.77 L 637.9 450.51 L 877.95 302.48 L 1038.57 602.38 L 772.69 697.62 L 925.15 793.14 L 1017.39 748.03 L 1070.59 794.07 L 1136.07 844.89 L 1207.79 794.5 L 1234.37 684.23 L 1178.71 557.01 L 1108.1 397.62 L 1236.15 238.06 L 1360.59 280.9 L 1440.74 397.58 L 1392.74 555.58 L 1579.87 828.85 L 1753.22 749.07 L 1837.82 599.77 L 1837.82 599.77 Z " fill="rgb(240,126,27)"/></g><g opacity="0.61"><path d=" M 425.22 797.14 L 424.08 799.37 L 419.63 797.08 L 420.78 794.86 L 458.01 722.41 L 489.24 696.06 L 472.27 618.21 L 635.22 452.25 L 636.97 450.46 L 640.54 453.97 L 638.78 455.75 L 477.73 619.79 L 494.76 697.94 L 461.99 725.59 L 425.22 797.14 L 425.22 797.14 Z " fill="rgb(240,126,27)"/></g><g opacity="0.61"><path d=" M 879.37 306.79 L 878.58 309.16 L 873.84 307.58 L 874.63 305.21 L 904.93 214.3 L 1014.79 152.37 L 1027.56 93.47 L 1028.09 91.03 L 1032.97 92.09 L 1032.44 94.53 L 1019.21 155.63 L 909.07 217.7 L 879.37 306.79 L 879.37 306.79 Z " fill="rgb(240,126,27)"/></g><g opacity="0.61"><path d=" M 487.002 210.717 C 486.905 205.201 491.307 200.41 496.825 200.025 C 502.344 199.639 506.902 203.805 506.998 209.321 C 507.095 214.836 502.693 219.627 497.175 220.013 C 491.656 220.398 487.098 216.232 487.002 210.717 Z " fill="rgb(240,126,27)"/></g><g opacity="0.61"><path d=" M 467.002 619.698 C 466.905 614.182 471.307 609.391 476.825 609.006 C 482.344 608.621 486.902 612.786 486.998 618.302 C 487.095 623.818 482.693 628.609 477.175 628.994 C 471.656 629.379 467.098 625.214 467.002 619.698 Z " fill="rgb(240,126,27)"/></g><g opacity="0.61"><path d=" M 757.002 697.698 C 756.905 692.182 761.307 687.391 766.825 687.006 C 772.344 686.621 776.902 690.786 776.998 696.302 C 777.095 701.818 772.693 706.609 767.175 706.994 C 761.656 707.379 757.098 703.214 757.002 697.698 Z " fill="rgb(240,126,27)"/></g><g opacity="0.61"><path d=" M 915.002 796.698 C 914.905 791.182 919.307 786.391 924.825 786.006 C 930.344 785.621 934.902 789.786 934.998 795.302 C 935.095 800.818 930.693 805.609 925.175 805.994 C 919.656 806.379 915.098 802.214 915.002 796.698 Z " fill="rgb(240,126,27)"/></g><g opacity="0.61"><path d=" M 1007.002 751.698 C 1006.905 746.182 1011.307 741.391 1016.825 741.006 C 1022.344 740.621 1026.902 744.786 1026.998 750.302 C 1027.095 755.818 1022.693 760.609 1017.175 760.994 C 1011.656 761.379 1007.098 757.214 1007.002 751.698 Z " fill="rgb(240,126,27)"/></g><g opacity="0.61"><path d=" M 1126.002 848.698 C 1125.905 843.182 1130.307 838.391 1135.825 838.006 C 1141.344 837.621 1145.902 841.786 1145.998 847.302 C 1146.095 852.818 1141.693 857.609 1136.175 857.994 C 1130.656 858.379 1126.098 854.214 1126.002 848.698 Z " fill="rgb(240,126,27)"/></g><g opacity="0.61"><path d=" M 1200.002 796.698 C 1199.905 791.182 1204.307 786.391 1209.825 786.006 C 1215.344 785.621 1219.902 789.786 1219.998 795.302 C 1220.095 800.818 1215.693 805.609 1210.175 805.994 C 1204.656 806.379 1200.098 802.214 1200.002 796.698 Z " fill="rgb(240,126,27)"/></g><g opacity="0.61"><path d=" M 1227.002 687.679 C 1226.905 682.164 1231.307 677.373 1236.825 676.987 C 1242.344 676.602 1246.902 680.768 1246.998 686.283 C 1247.095 691.799 1242.693 696.59 1237.175 696.975 C 1231.656 697.361 1227.098 693.195 1227.002 687.679 Z " fill="rgb(240,126,27)"/></g><g opacity="0.61"><path d=" M 1027.002 599.661 C 1026.905 594.145 1031.307 589.354 1036.825 588.969 C 1042.344 588.584 1046.902 592.749 1046.998 598.265 C 1047.095 603.781 1042.693 608.571 1037.175 608.957 C 1031.656 609.342 1027.098 605.177 1027.002 599.661 Z " fill="rgb(240,126,27)"/></g><g opacity="0.61"><path d=" M 867.002 306.698 C 866.905 301.182 871.307 296.391 876.825 296.006 C 882.344 295.621 886.902 299.786 886.998 305.302 C 887.095 310.818 882.693 315.609 877.175 315.994 C 871.656 316.379 867.098 312.214 867.002 306.698 Z " fill="rgb(240,126,27)"/></g><g opacity="0.61"><path d=" M 897.002 216.698 C 896.905 211.182 901.307 206.391 906.825 206.006 C 912.344 205.621 916.902 209.786 916.998 215.302 C 917.095 220.818 912.693 225.609 907.175 225.994 C 901.656 226.379 897.098 222.214 897.002 216.698 Z " fill="rgb(240,126,27)"/></g><g opacity="0.61"><path d=" M 1007.002 154.698 C 1006.905 149.182 1011.307 144.391 1016.825 144.006 C 1022.344 143.621 1026.902 147.786 1026.998 153.302 C 1027.095 158.818 1022.693 163.609 1017.175 163.994 C 1011.656 164.379 1007.098 160.214 1007.002 154.698 Z " fill="rgb(240,126,27)"/></g><g opacity="0.61"><path d=" M 1020.002 94.698 C 1019.905 89.182 1024.307 84.391 1029.825 84.006 C 1035.344 83.621 1039.902 87.786 1039.998 93.302 C 1040.095 98.818 1035.693 103.609 1030.175 103.994 C 1024.656 104.379 1020.098 100.214 1020.002 94.698 Z " fill="rgb(240,126,27)"/></g><g opacity="0.61"><path d=" M 1106.002 398.698 C 1105.905 393.182 1110.307 388.391 1115.825 388.006 C 1121.344 387.621 1125.902 391.786 1125.998 397.302 C 1126.095 402.818 1121.693 407.609 1116.175 407.994 C 1110.656 408.379 1106.098 404.214 1106.002 398.698 Z " fill="rgb(240,126,27)"/></g><g opacity="0.61"><path d=" M 1227.002 241.698 C 1226.905 236.182 1231.307 231.391 1236.825 231.006 C 1242.344 230.621 1246.902 234.786 1246.998 240.302 C 1247.095 245.818 1242.693 250.609 1237.175 250.994 C 1231.656 251.379 1227.098 247.214 1227.002 241.698 Z " fill="rgb(240,126,27)"/></g><g opacity="0.61"><path d=" M 1349.002 286.661 C 1348.905 281.145 1353.307 276.354 1358.825 275.969 C 1364.344 275.584 1368.902 279.749 1368.998 285.265 C 1369.095 290.781 1364.693 295.571 1359.175 295.957 C 1353.656 296.342 1349.098 292.177 1349.002 286.661 Z " fill="rgb(240,126,27)"/></g><g opacity="0.61"><path d=" M 1428.002 398.698 C 1427.905 393.182 1432.307 388.391 1437.825 388.006 C 1443.344 387.621 1447.902 391.786 1447.998 397.302 C 1448.095 402.818 1443.693 407.609 1438.175 407.994 C 1432.656 408.379 1428.098 404.214 1428.002 398.698 Z " fill="rgb(240,126,27)"/></g><g opacity="0.61"><path d=" M 1380.002 556.698 C 1379.905 551.182 1384.307 546.391 1389.825 546.006 C 1395.344 545.621 1399.902 549.786 1399.998 555.302 C 1400.095 560.818 1395.693 565.609 1390.175 565.994 C 1384.656 566.379 1380.098 562.214 1380.002 556.698 Z " fill="rgb(240,126,27)"/></g><g opacity="0.61"><path d=" M 1569.002 832.698 C 1568.905 827.182 1573.307 822.391 1578.825 822.006 C 1584.344 821.621 1588.902 825.786 1588.998 831.302 C 1589.095 836.818 1584.693 841.609 1579.175 841.994 C 1573.656 842.379 1569.098 838.214 1569.002 832.698 Z " fill="rgb(240,126,27)"/></g><g opacity="0.61"><path d=" M 1745.002 751.698 C 1744.905 746.182 1749.307 741.391 1754.825 741.006 C 1760.344 740.621 1764.902 744.786 1764.998 750.302 C 1765.095 755.818 1760.693 760.609 1755.175 760.994 C 1749.656 761.379 1745.098 757.214 1745.002 751.698 Z " fill="rgb(240,126,27)"/></g><g opacity="0.61"><path d=" M 1830.002 599.661 C 1829.905 594.145 1834.307 589.354 1839.825 588.969 C 1845.344 588.584 1849.902 592.749 1849.998 598.265 C 1850.095 603.781 1845.693 608.571 1840.175 608.957 C 1834.656 609.342 1830.098 605.177 1830.002 599.661 Z " fill="rgb(240,126,27)"/></g><g opacity="0.61"><path d=" M 482.002 697.698 C 481.905 692.182 486.307 687.391 491.825 687.006 C 497.344 686.621 501.902 690.786 501.998 696.302 C 502.095 701.818 497.693 706.609 492.175 706.994 C 486.656 707.379 482.098 703.214 482.002 697.698 Z " fill="rgb(240,126,27)"/></g><g opacity="0.61"><path d=" M 619.815 455.2 C 619.649 445.719 627.215 437.485 636.7 436.823 C 646.185 436.16 654.02 443.32 654.185 452.8 C 654.351 462.281 646.785 470.515 637.3 471.177 C 627.815 471.84 619.98 464.68 619.815 455.2 Z " fill="rgb(240,126,27)"/></g><g opacity="0.61"><path d=" M 450.002 724.698 C 449.905 719.182 454.307 714.391 459.825 714.006 C 465.344 713.621 469.902 717.786 469.998 723.302 C 470.095 728.818 465.693 733.609 460.175 733.994 C 454.656 734.379 450.098 730.214 450.002 724.698 Z " fill="rgb(240,126,27)"/></g><g opacity="0.61"><path d=" M 413.002 796.698 C 412.905 791.182 417.307 786.391 422.825 786.006 C 428.344 785.621 432.902 789.786 432.998 795.302 C 433.095 800.818 428.693 805.609 423.175 805.994 C 417.656 806.379 413.098 802.214 413.002 796.698 Z " fill="rgb(240,126,27)"/></g></g><g style="opacity:0.61;"><g opacity="0.61"><path d=" M -104.38 394.437 L -105.156 393.074 L -107.877 394.619 L -107.108 395.976 L -53.681 490.256 L 58.084 541.693 L 177.494 367.317 L 147.465 268.471 L 196.169 197.577 L 270.967 171.827 L 348.511 268.446 L 305.1 366.423 L 269.853 446.989 L 287.007 518.139 L 334.729 551.678 L 377.595 518.408 L 409.376 490.906 L 466.782 518.99 L 569.094 454.877 L 400.105 394.344 L 497.312 212.854 L 647.427 305.426 L 732.678 155.117 L 733.454 153.759 L 730.733 152.214 L 729.963 153.578 L 646.301 301.059 L 496.123 208.45 L 395.638 396.07 L 561.975 455.653 L 466.594 515.411 L 408.888 487.19 L 375.606 515.993 L 334.641 547.787 L 289.772 516.262 L 273.144 447.276 L 307.965 367.686 L 352.139 267.971 L 272.03 168.148 L 194.179 194.949 L 144.037 267.945 L 174.066 366.792 L 56.996 537.752 L -51.454 487.841 L -104.38 394.437 L -104.38 394.437 Z " fill="rgb(240,126,27)"/></g><g opacity="0.61"><path d=" M 779.355 517.914 L 780.068 519.309 L 782.852 517.876 L 782.133 516.487 L 758.841 471.162 L 739.304 454.677 L 749.92 405.974 L 647.977 302.148 L 646.882 301.028 L 644.649 303.224 L 645.75 304.337 L 746.504 406.962 L 735.85 455.853 L 756.351 473.151 L 779.355 517.914 L 779.355 517.914 Z " fill="rgb(240,126,27)"/></g><g opacity="0.61"><path d=" M 495.235 211.146 L 495.729 212.629 L 498.694 211.641 L 498.2 210.158 L 479.244 153.284 L 410.515 114.54 L 402.526 77.692 L 402.194 76.165 L 399.141 76.828 L 399.473 78.355 L 407.75 116.579 L 476.654 155.411 L 495.235 211.146 L 495.235 211.146 Z " fill="rgb(240,126,27)"/></g><g opacity="0.61"><path d=" M 740.704 151.042 C 740.764 147.591 738.01 144.594 734.558 144.353 C 731.106 144.112 728.254 146.718 728.194 150.169 C 728.133 153.619 730.887 156.617 734.34 156.858 C 737.792 157.099 740.644 154.493 740.704 151.042 Z " fill="rgb(240,126,27)"/></g><g opacity="0.61"><path d=" M 753.216 406.904 C 753.276 403.454 750.523 400.457 747.07 400.216 C 743.618 399.975 740.766 402.58 740.706 406.031 C 740.646 409.482 743.4 412.479 746.852 412.72 C 750.304 412.961 753.156 410.355 753.216 406.904 Z " fill="rgb(240,126,27)"/></g><g opacity="0.61"><path d=" M 571.79 455.702 C 571.85 452.251 569.096 449.254 565.644 449.013 C 562.191 448.772 559.34 451.378 559.279 454.829 C 559.219 458.279 561.973 461.277 565.425 461.518 C 568.878 461.759 571.729 459.153 571.79 455.702 Z " fill="rgb(240,126,27)"/></g><g opacity="0.61"><path d=" M 472.943 517.637 C 473.004 514.187 470.25 511.189 466.797 510.948 C 463.345 510.707 460.493 513.313 460.433 516.764 C 460.373 520.215 463.127 523.212 466.579 523.453 C 470.031 523.694 472.883 521.088 472.943 517.637 Z " fill="rgb(240,126,27)"/></g><g opacity="0.61"><path d=" M 415.387 489.485 C 415.448 486.034 412.694 483.037 409.241 482.796 C 405.789 482.555 402.937 485.161 402.877 488.612 C 402.817 492.062 405.571 495.059 409.023 495.3 C 412.475 495.541 415.327 492.936 415.387 489.485 Z " fill="rgb(240,126,27)"/></g><g opacity="0.61"><path d=" M 340.94 550.169 C 341 546.718 338.246 543.721 334.794 543.48 C 331.342 543.239 328.49 545.845 328.43 549.296 C 328.369 552.746 331.123 555.744 334.576 555.985 C 338.028 556.226 340.88 553.62 340.94 550.169 Z " fill="rgb(240,126,27)"/></g><g opacity="0.61"><path d=" M 294.645 517.637 C 294.705 514.187 291.951 511.189 288.499 510.948 C 285.047 510.707 282.195 513.313 282.135 516.764 C 282.074 520.215 284.828 523.212 288.28 523.453 C 291.733 523.694 294.585 521.088 294.645 517.637 Z " fill="rgb(240,126,27)"/></g><g opacity="0.61"><path d=" M 277.753 449.434 C 277.814 445.984 275.06 442.986 271.607 442.745 C 268.155 442.504 265.303 445.11 265.243 448.561 C 265.183 452.012 267.937 455.009 271.389 455.25 C 274.841 455.491 277.693 452.885 277.753 449.434 Z " fill="rgb(240,126,27)"/></g><g opacity="0.61"><path d=" M 402.875 394.369 C 402.935 390.918 400.182 387.921 396.729 387.68 C 393.277 387.439 390.425 390.045 390.365 393.496 C 390.305 396.946 393.059 399.944 396.511 400.185 C 399.963 400.426 402.815 397.82 402.875 394.369 Z " fill="rgb(240,126,27)"/></g><g opacity="0.61"><path d=" M 502.973 211.089 C 503.033 207.638 500.279 204.641 496.827 204.4 C 493.374 204.159 490.523 206.765 490.462 210.216 C 490.402 213.666 493.156 216.664 496.608 216.905 C 500.061 217.146 502.912 214.54 502.973 211.089 Z " fill="rgb(240,126,27)"/></g><g opacity="0.61"><path d=" M 484.204 154.784 C 484.265 151.333 481.511 148.336 478.058 148.095 C 474.606 147.854 471.754 150.46 471.694 153.911 C 471.634 157.361 474.388 160.359 477.84 160.6 C 481.292 160.841 484.144 158.235 484.204 154.784 Z " fill="rgb(240,126,27)"/></g><g opacity="0.61"><path d=" M 415.387 115.996 C 415.448 112.546 412.694 109.548 409.241 109.307 C 405.789 109.066 402.937 111.672 402.877 115.123 C 402.817 118.574 405.571 121.571 409.023 121.812 C 412.475 122.053 415.327 119.447 415.387 115.996 Z " fill="rgb(240,126,27)"/></g><g opacity="0.61"><path d=" M 407.254 78.46 C 407.315 75.009 404.561 72.012 401.109 71.771 C 397.656 71.53 394.804 74.136 394.744 77.586 C 394.684 81.037 397.438 84.034 400.89 84.275 C 404.342 84.516 407.194 81.911 407.254 78.46 Z " fill="rgb(240,126,27)"/></g><g opacity="0.61"><path d=" M 353.452 268.645 C 353.512 265.194 350.758 262.197 347.306 261.956 C 343.854 261.715 341.002 264.321 340.942 267.772 C 340.882 271.222 343.635 274.22 347.088 274.461 C 350.54 274.702 353.392 272.096 353.452 268.645 Z " fill="rgb(240,126,27)"/></g><g opacity="0.61"><path d=" M 277.753 170.424 C 277.814 166.974 275.06 163.976 271.607 163.735 C 268.155 163.494 265.303 166.1 265.243 169.551 C 265.183 173.002 267.937 175.999 271.389 176.24 C 274.841 176.481 277.693 173.875 277.753 170.424 Z " fill="rgb(240,126,27)"/></g><g opacity="0.61"><path d=" M 201.429 198.553 C 201.489 195.103 198.735 192.105 195.283 191.864 C 191.831 191.623 188.979 194.229 188.919 197.68 C 188.859 201.131 191.612 204.128 195.065 204.369 C 198.517 204.61 201.369 202.004 201.429 198.553 Z " fill="rgb(240,126,27)"/></g><g opacity="0.61"><path d=" M 152.006 268.645 C 152.066 265.194 149.312 262.197 145.86 261.956 C 142.408 261.715 139.556 264.321 139.496 267.772 C 139.435 271.222 142.189 274.22 145.642 274.461 C 149.094 274.702 151.946 272.096 152.006 268.645 Z " fill="rgb(240,126,27)"/></g><g opacity="0.61"><path d=" M 182.035 367.491 C 182.095 364.04 179.342 361.043 175.889 360.802 C 172.437 360.561 169.585 363.167 169.525 366.618 C 169.465 370.069 172.219 373.066 175.671 373.307 C 179.123 373.548 181.975 370.942 182.035 367.491 Z " fill="rgb(240,126,27)"/></g><g opacity="0.61"><path d=" M 63.795 540.159 C 63.855 536.708 61.102 533.711 57.649 533.47 C 54.197 533.229 51.345 535.835 51.285 539.286 C 51.225 542.737 53.979 545.734 57.431 545.975 C 60.883 546.216 63.735 543.61 63.795 540.159 Z " fill="rgb(240,126,27)"/></g><g opacity="0.61"><path d=" M -46.312 489.485 C -46.252 486.034 -49.006 483.037 -52.458 482.796 C -55.91 482.555 -58.762 485.161 -58.822 488.612 C -58.883 492.062 -56.129 495.059 -52.676 495.3 C -49.224 495.541 -46.372 492.936 -46.312 489.485 Z " fill="rgb(240,126,27)"/></g><g opacity="0.61"><path d=" M -99.489 394.369 C -99.429 390.918 -102.182 387.921 -105.635 387.68 C -109.087 387.439 -111.939 390.045 -111.999 393.496 C -112.059 396.946 -109.305 399.944 -105.853 400.185 C -102.401 400.426 -99.549 397.82 -99.489 394.369 Z " fill="rgb(240,126,27)"/></g><g opacity="0.61"><path d=" M 743.832 455.702 C 743.892 452.251 741.138 449.254 737.686 449.013 C 734.234 448.772 731.382 451.378 731.322 454.829 C 731.261 458.279 734.015 461.277 737.468 461.518 C 740.92 461.759 743.772 459.153 743.832 455.702 Z " fill="rgb(240,126,27)"/></g><g opacity="0.61"><path d=" M 657.615 303.993 C 657.718 298.062 652.985 292.91 647.051 292.496 C 641.118 292.082 636.216 296.561 636.112 302.492 C 636.009 308.423 640.742 313.574 646.676 313.989 C 652.61 314.403 657.511 309.924 657.615 303.993 Z " fill="rgb(240,126,27)"/></g><g opacity="0.61"><path d=" M 763.851 472.593 C 763.912 469.143 761.158 466.145 757.706 465.904 C 754.253 465.663 751.402 468.269 751.341 471.72 C 751.281 475.171 754.035 478.168 757.487 478.409 C 760.939 478.65 763.791 476.044 763.851 472.593 Z " fill="rgb(240,126,27)"/></g><g opacity="0.61"><path d=" M 786.999 517.637 C 787.059 514.187 784.305 511.189 780.853 510.948 C 777.401 510.707 774.549 513.313 774.489 516.764 C 774.429 520.215 777.182 523.212 780.635 523.453 C 784.087 523.694 786.939 521.088 786.999 517.637 Z " fill="rgb(240,126,27)"/></g></g><g style="opacity:0.61;"><g opacity="0.61"><path d=" M 1481.329 79.564 L 1482.38 78.4 L 1480.059 76.3 L 1479.012 77.457 L 1406.251 157.762 L 1392.469 280.021 L 1595.501 338.704 L 1679.938 279.183 L 1762.532 303.19 L 1810.445 366.135 L 1743.028 470.073 L 1636.379 459.588 L 1548.823 451.393 L 1486.645 490 L 1469.769 545.834 L 1514.806 576.1 L 1550.889 597.65 L 1542.231 660.968 L 1635.201 738.005 L 1639.669 558.556 L 1842.491 593.925 L 1801.681 765.502 L 1971.146 799.3 L 1972.678 799.611 L 1973.292 796.542 L 1971.756 796.239 L 1805.474 763.063 L 1846.3 591.415 L 1636.629 554.856 L 1632.231 731.488 L 1545.569 659.667 L 1554.264 596.021 L 1516.475 573.454 L 1473.436 544.53 L 1489.294 492.037 L 1549.582 454.607 L 1636.078 462.705 L 1744.618 473.37 L 1814.272 365.991 L 1764.403 300.477 L 1679.362 275.763 L 1594.925 335.284 L 1395.87 277.751 L 1409.242 159.119 L 1481.329 79.564 L 1481.329 79.564 Z " fill="rgb(240,126,27)"/></g><g opacity="0.61"><path d=" M 1641.303 957.426 L 1640.202 958.541 L 1642.436 960.735 L 1643.529 959.617 L 1679.26 923.283 L 1688.784 899.56 L 1738.36 894.363 L 1804.967 764.996 L 1805.687 763.605 L 1802.901 762.174 L 1802.189 763.568 L 1736.35 891.429 L 1686.584 896.65 L 1676.59 921.542 L 1641.303 957.426 L 1641.303 957.426 Z " fill="rgb(240,126,27)"/></g><g opacity="0.61"><path d=" M 1843.461 591.417 L 1842.208 592.352 L 1844.077 594.857 L 1845.33 593.923 L 1893.387 558.083 L 1908.616 480.669 L 1941.098 461.524 L 1942.443 460.731 L 1940.856 458.04 L 1939.511 458.834 L 1905.812 478.683 L 1890.555 556.291 L 1843.461 591.417 L 1843.461 591.417 Z " fill="rgb(240,126,27)"/></g><g opacity="0.61"><path d=" M 1977.533 805.643 C 1980.828 804.617 1982.81 801.062 1981.956 797.709 C 1981.102 794.355 1977.733 792.465 1974.438 793.49 C 1971.142 794.515 1969.16 798.07 1970.014 801.424 C 1970.868 804.777 1974.237 806.668 1977.533 805.643 Z " fill="rgb(240,126,27)"/></g><g opacity="0.61"><path d=" M 1738.51 897.784 C 1741.805 896.759 1743.787 893.204 1742.933 889.851 C 1742.079 886.497 1738.71 884.606 1735.415 885.632 C 1732.119 886.657 1730.137 890.212 1730.991 893.566 C 1731.845 896.919 1735.214 898.81 1738.51 897.784 Z " fill="rgb(240,126,27)"/></g><g opacity="0.61"><path d=" M 1635.264 740.823 C 1638.559 739.797 1640.541 736.242 1639.687 732.889 C 1638.833 729.535 1635.464 727.645 1632.169 728.67 C 1628.873 729.695 1626.891 733.25 1627.745 736.604 C 1628.599 739.957 1631.968 741.848 1635.264 740.823 Z " fill="rgb(240,126,27)"/></g><g opacity="0.61"><path d=" M 1545.448 666.394 C 1548.743 665.369 1550.725 661.814 1549.871 658.46 C 1549.017 655.106 1545.648 653.216 1542.352 654.241 C 1539.057 655.266 1537.075 658.822 1537.929 662.175 C 1538.783 665.529 1542.152 667.419 1545.448 666.394 Z " fill="rgb(240,126,27)"/></g><g opacity="0.61"><path d=" M 1554.124 602.912 C 1557.42 601.887 1559.402 598.332 1558.548 594.978 C 1557.694 591.624 1554.325 589.734 1551.029 590.759 C 1547.734 591.784 1545.752 595.339 1546.606 598.693 C 1547.46 602.047 1550.829 603.937 1554.124 602.912 Z " fill="rgb(240,126,27)"/></g><g opacity="0.61"><path d=" M 1473.15 551.258 C 1476.445 550.233 1478.427 546.678 1477.573 543.324 C 1476.719 539.971 1473.35 538.08 1470.055 539.105 C 1466.759 540.131 1464.777 543.686 1465.631 547.039 C 1466.485 550.393 1469.854 552.283 1473.15 551.258 Z " fill="rgb(240,126,27)"/></g><g opacity="0.61"><path d=" M 1489.517 497.095 C 1492.813 496.07 1494.795 492.515 1493.941 489.161 C 1493.086 485.807 1489.718 483.917 1486.422 484.942 C 1483.127 485.967 1481.145 489.522 1481.999 492.876 C 1482.853 496.23 1486.222 498.12 1489.517 497.095 Z " fill="rgb(240,126,27)"/></g><g opacity="0.61"><path d=" M 1548.979 459.661 C 1552.274 458.636 1554.257 455.081 1553.402 451.728 C 1552.548 448.374 1549.179 446.484 1545.884 447.509 C 1542.588 448.534 1540.606 452.089 1541.461 455.443 C 1542.315 458.796 1545.684 460.687 1548.979 459.661 Z " fill="rgb(240,126,27)"/></g><g opacity="0.61"><path d=" M 1640.514 561.194 C 1643.81 560.169 1645.792 556.614 1644.938 553.261 C 1644.084 549.907 1640.715 548.016 1637.419 549.042 C 1634.124 550.067 1632.142 553.622 1632.996 556.976 C 1633.85 560.329 1637.219 562.22 1640.514 561.194 Z " fill="rgb(240,126,27)"/></g><g opacity="0.61"><path d=" M 1845.943 598.747 C 1849.238 597.721 1851.22 594.166 1850.366 590.813 C 1849.512 587.459 1846.143 585.569 1842.848 586.594 C 1839.552 587.619 1837.57 591.174 1838.424 594.528 C 1839.279 597.881 1842.647 599.772 1845.943 598.747 Z " fill="rgb(240,126,27)"/></g><g opacity="0.61"><path d=" M 1893.518 563.263 C 1896.814 562.238 1898.796 558.683 1897.942 555.329 C 1897.088 551.976 1893.719 550.085 1890.423 551.111 C 1887.128 552.136 1885.146 555.691 1886 559.045 C 1886.854 562.398 1890.223 564.289 1893.518 563.263 Z " fill="rgb(240,126,27)"/></g><g opacity="0.61"><path d=" M 1908.761 485.753 C 1912.057 484.727 1914.039 481.172 1913.185 477.819 C 1912.331 474.465 1908.962 472.575 1905.666 473.6 C 1902.371 474.625 1900.389 478.18 1901.243 481.534 C 1902.097 484.887 1905.466 486.778 1908.761 485.753 Z " fill="rgb(240,126,27)"/></g><g opacity="0.61"><path d=" M 1941.852 466.255 C 1945.147 465.23 1947.129 461.675 1946.275 458.321 C 1945.421 454.968 1942.052 453.077 1938.757 454.103 C 1935.461 455.128 1933.479 458.683 1934.333 462.037 C 1935.187 465.39 1938.556 467.281 1941.852 466.255 Z " fill="rgb(240,126,27)"/></g><g opacity="0.61"><path d=" M 1744.389 474.828 C 1747.684 473.802 1749.667 470.247 1748.812 466.894 C 1747.958 463.54 1744.589 461.65 1741.294 462.675 C 1737.998 463.7 1736.016 467.255 1736.871 470.609 C 1737.725 473.962 1741.094 475.853 1744.389 474.828 Z " fill="rgb(240,126,27)"/></g><g opacity="0.61"><path d=" M 1813.906 372.139 C 1817.202 371.114 1819.184 367.559 1818.33 364.205 C 1817.475 360.851 1814.107 358.961 1810.811 359.986 C 1807.516 361.012 1805.534 364.567 1806.388 367.92 C 1807.242 371.274 1810.611 373.164 1813.906 372.139 Z " fill="rgb(240,126,27)"/></g><g opacity="0.61"><path d=" M 1763.255 308.491 C 1766.55 307.466 1768.532 303.911 1767.678 300.557 C 1766.824 297.203 1763.455 295.313 1760.16 296.338 C 1756.864 297.363 1754.882 300.919 1755.736 304.272 C 1756.59 307.626 1759.959 309.516 1763.255 308.491 Z " fill="rgb(240,126,27)"/></g><g opacity="0.61"><path d=" M 1681.198 283.549 C 1684.493 282.524 1686.475 278.969 1685.621 275.615 C 1684.767 272.262 1681.398 270.371 1678.102 271.397 C 1674.807 272.422 1672.825 275.977 1673.679 279.331 C 1674.533 282.684 1677.902 284.575 1681.198 283.549 Z " fill="rgb(240,126,27)"/></g><g opacity="0.61"><path d=" M 1596.76 343.07 C 1600.056 342.045 1602.038 338.49 1601.184 335.136 C 1600.33 331.782 1596.961 329.892 1593.665 330.917 C 1590.37 331.942 1588.388 335.498 1589.242 338.851 C 1590.096 342.205 1593.465 344.095 1596.76 343.07 Z " fill="rgb(240,126,27)"/></g><g opacity="0.61"><path d=" M 1395.717 284.962 C 1399.012 283.937 1400.994 280.382 1400.14 277.028 C 1399.286 273.675 1395.917 271.784 1392.622 272.809 C 1389.326 273.835 1387.344 277.39 1388.198 280.743 C 1389.053 284.097 1392.421 285.987 1395.717 284.962 Z " fill="rgb(240,126,27)"/></g><g opacity="0.61"><path d=" M 1409.294 164.517 C 1412.59 163.491 1414.572 159.936 1413.717 156.583 C 1412.863 153.229 1409.494 151.339 1406.199 152.364 C 1402.904 153.389 1400.921 156.944 1401.776 160.298 C 1402.63 163.651 1405.999 165.542 1409.294 164.517 Z " fill="rgb(240,126,27)"/></g><g opacity="0.61"><path d=" M 1482.928 84.187 C 1486.223 83.162 1488.206 79.607 1487.351 76.253 C 1486.497 72.899 1483.128 71.009 1479.833 72.034 C 1476.537 73.059 1474.555 76.615 1475.41 79.968 C 1476.264 83.322 1479.633 85.212 1482.928 84.187 Z " fill="rgb(240,126,27)"/></g><g opacity="0.61"><path d=" M 1689.232 904.181 C 1692.527 903.156 1694.509 899.601 1693.655 896.247 C 1692.801 892.894 1689.432 891.003 1686.137 892.028 C 1682.841 893.054 1680.859 896.609 1681.713 899.962 C 1682.567 903.316 1685.936 905.206 1689.232 904.181 Z " fill="rgb(240,126,27)"/></g><g opacity="0.61"><path d=" M 1806.238 774.726 C 1811.902 772.964 1815.309 766.854 1813.841 761.09 C 1812.373 755.325 1806.582 752.076 1800.918 753.838 C 1795.254 755.6 1791.847 761.711 1793.315 767.475 C 1794.783 773.239 1800.574 776.488 1806.238 774.726 Z " fill="rgb(240,126,27)"/></g><g opacity="0.61"><path d=" M 1679.473 928.489 C 1682.768 927.464 1684.75 923.909 1683.896 920.555 C 1683.042 917.201 1679.673 915.311 1676.378 916.336 C 1673.082 917.361 1671.1 920.916 1671.954 924.27 C 1672.808 927.624 1676.177 929.514 1679.473 928.489 Z " fill="rgb(240,126,27)"/></g><g opacity="0.61"><path d=" M 1643.963 964.598 C 1647.259 963.573 1649.241 960.018 1648.387 956.664 C 1647.533 953.31 1644.164 951.42 1640.868 952.445 C 1637.573 953.47 1635.591 957.025 1636.445 960.379 C 1637.299 963.733 1640.668 965.623 1643.963 964.598 Z " fill="rgb(240,126,27)"/></g></g></g></g></g></g></svg>