<svg xmlns="http://www.w3.org/2000/svg" xmlns:xlink="http://www.w3.org/1999/xlink" style="isolation:isolate" viewBox="0 0 40 40" width="40pt" height="40pt"><defs><clipPath id="_clipPath_neiz9gQDi52lODmq6FZAqxEq0u8ZZJDO"><rect width="40" height="40"/></clipPath></defs><g clip-path="url(#_clipPath_neiz9gQDi52lODmq6FZAqxEq0u8ZZJDO)"><path d=" M 20 2 C 9.936 2 1.701 10.361 1.701 20.581 C 1.701 28.477 6.579 35.211 13.367 37.921 C 14.053 37.767 14.663 37.147 14.663 36.373 L 14.663 32.968 L 12.679 32.968 C 11.232 32.968 10.01 32.273 9.403 31.187 C 9.248 30.877 9.096 30.49 8.944 30.103 C 8.641 29.252 8.26 28.323 7.497 27.781 C 7.19 27.548 7.038 27.082 7.116 26.695 C 7.268 26.308 7.649 26 8.334 26.079 C 9.096 26.154 10.24 27.007 10.928 27.935 C 11.535 28.71 11.994 29.176 12.908 29.176 L 13.138 29.176 C 13.823 29.176 15.503 29.176 15.806 28.864 C 16.035 28.556 16.188 28.323 16.416 28.09 C 11.842 27.161 9.248 24.452 9.248 20.348 C 9.248 18.954 9.629 17.563 10.469 16.323 C 10.166 15.161 9.478 12.143 10.928 10.824 L 11.154 10.595 L 11.461 10.595 C 13.441 10.595 14.892 11.444 15.806 12.143 C 18.475 11.136 21.525 11.136 24.194 12.143 C 25.034 11.444 26.481 10.595 28.54 10.595 L 28.846 10.595 L 29.072 10.824 C 30.523 12.219 29.834 15.161 29.531 16.323 C 30.293 17.563 30.752 18.953 30.752 20.348 C 30.752 24.452 28.158 27.161 23.661 28.09 C 24.804 29.329 25.414 31.187 25.414 32.66 L 25.414 36.452 C 25.414 37.226 25.948 37.845 26.71 38 C 33.419 35.211 38.299 28.477 38.299 20.581 C 38.299 10.361 30.064 2 20 2 Z " fill="rgb(34,41,51)"/></g></svg>