<?xml version="1.0" encoding="UTF-8" standalone="no"?><!-- Generator: Gravit.io --><svg xmlns="http://www.w3.org/2000/svg" xmlns:xlink="http://www.w3.org/1999/xlink" style="isolation:isolate" viewBox="0 0 40 40" width="40pt" height="40pt"><defs><clipPath id="_clipPath_PzhgCEIjVq0yLX1twUyPKwOXOR1LAFnA"><rect width="40" height="40"/></clipPath></defs><g clip-path="url(#_clipPath_PzhgCEIjVq0yLX1twUyPKwOXOR1LAFnA)"><g><path d=" M 948.949 689.011 C 946.232 689.011 944 691.207 944 693.88 L 944 720.154 C 944 722.815 946.232 725.011 948.949 725.011 L 975.66 725.011 C 978.366 725.011 980.598 722.815 980.598 720.154 L 980.598 693.88 C 980.598 691.207 978.366 689.011 975.66 689.011 L 948.949 689.011 Z  M 948.949 691.781 L 975.66 691.781 C 976.848 691.781 977.783 692.7 977.783 693.88 L 977.783 720.154 C 977.788 720.709 977.566 721.244 977.167 721.636 C 976.768 722.029 976.225 722.247 975.66 722.242 L 948.949 722.242 C 948.383 722.25 947.837 722.032 947.436 721.639 C 947.034 721.247 946.811 720.711 946.815 720.154 L 946.815 693.88 C 946.815 692.7 947.75 691.781 948.949 691.781 Z  M 952.446 694.55 C 950.897 694.55 949.63 695.796 949.63 697.319 C 949.63 698.842 950.897 700.088 952.446 700.088 C 953.994 700.088 955.261 698.842 955.261 697.319 C 955.261 695.796 953.994 694.55 952.446 694.55 Z  M 949.63 702.858 L 949.63 719.473 L 955.261 719.473 L 955.261 702.858 L 949.63 702.858 Z  M 958.076 702.858 L 958.076 719.473 L 963.707 719.473 L 963.707 712.051 C 963.707 709.747 963.926 707.682 966.742 707.682 C 969.515 707.682 969.337 710.16 969.337 712.204 L 969.337 719.473 L 974.968 719.473 L 974.968 711.276 C 974.968 706.513 973.954 702.858 968.467 702.858 C 965.829 702.858 964.498 703.896 963.771 705.281 L 963.707 705.281 L 963.707 702.858 L 958.076 702.858 Z " fill="rgb(34,41,51)"/><path d=" M 1042.15 689.011 C 1032.085 689.011 1023.85 697.373 1023.85 707.592 C 1023.85 715.489 1028.729 722.223 1035.516 724.932 C 1036.202 724.778 1036.812 724.158 1036.812 723.384 L 1036.812 719.979 L 1034.828 719.979 C 1033.381 719.979 1032.16 719.284 1031.553 718.198 C 1031.397 717.889 1031.246 717.502 1031.094 717.115 C 1030.79 716.263 1030.409 715.334 1029.647 714.792 C 1029.339 714.56 1029.188 714.094 1029.265 713.707 C 1029.417 713.319 1029.798 713.011 1030.483 713.09 C 1031.246 713.165 1032.389 714.019 1033.078 714.947 C 1033.685 715.721 1034.144 716.187 1035.058 716.187 L 1035.287 716.187 C 1035.972 716.187 1037.653 716.187 1037.956 715.875 C 1038.185 715.567 1038.337 715.334 1038.566 715.101 C 1033.991 714.173 1031.397 711.463 1031.397 707.359 C 1031.397 705.965 1031.779 704.574 1032.619 703.334 C 1032.315 702.173 1031.628 699.155 1033.078 697.836 L 1033.303 697.606 L 1033.611 697.606 C 1035.591 697.606 1037.042 698.456 1037.956 699.155 C 1040.625 698.148 1043.674 698.148 1046.343 699.155 C 1047.183 698.456 1048.63 697.606 1050.689 697.606 L 1050.996 697.606 L 1051.221 697.836 C 1052.672 699.23 1051.984 702.173 1051.68 703.334 C 1052.443 704.574 1052.902 705.965 1052.902 707.36 C 1052.902 711.463 1050.307 714.173 1045.81 715.102 C 1046.954 716.34 1047.564 718.198 1047.564 719.671 L 1047.564 723.463 C 1047.564 724.237 1048.097 724.857 1048.86 725.011 C 1055.569 722.223 1060.449 715.489 1060.449 707.592 C 1060.449 697.373 1052.214 689.011 1042.15 689.011 Z " fill="rgb(34,41,51)"/><path d=" M 1132.352 689.012 C 1132.004 689.007 1131.693 689.247 1131.585 689.604 L 1127.628 702.726 L 1116.372 702.726 L 1112.416 689.604 C 1112.31 689.258 1112.014 689.021 1111.676 689.012 C 1111.338 689.005 1111.033 689.227 1110.912 689.567 L 1106.144 703.275 C 1106.141 703.275 1106.141 703.279 1106.138 703.281 L 1103.751 710.138 C 1103.626 710.5 1103.741 710.907 1104.031 711.133 L 1121.528 724.841 L 1121.531 724.848 C 1121.534 724.848 1121.534 724.848 1121.534 724.851 L 1121.566 724.871 C 1121.578 724.878 1121.586 724.888 1121.599 724.894 C 1121.602 724.894 1121.602 724.897 1121.606 724.897 C 1121.606 724.897 1121.609 724.901 1121.612 724.901 C 1121.615 724.904 1121.618 724.908 1121.624 724.908 L 1121.637 724.918 C 1121.653 724.924 1121.671 724.935 1121.689 724.941 L 1121.689 724.945 L 1121.742 724.964 C 1121.746 724.964 1121.746 724.964 1121.749 724.968 C 1121.762 724.971 1121.776 724.976 1121.789 724.981 C 1121.795 724.981 1121.801 724.985 1121.811 724.985 C 1121.811 724.988 1121.811 724.988 1121.811 724.985 C 1121.827 724.992 1121.842 724.994 1121.857 724.998 L 1121.919 725.008 C 1121.951 725.008 1121.984 725.011 1122.016 725.011 C 1122.047 725.008 1122.075 725.008 1122.103 725.001 C 1122.116 725.001 1122.124 725.001 1122.137 724.998 L 1122.143 724.998 C 1122.15 724.994 1122.152 724.994 1122.159 724.994 C 1122.162 724.994 1122.165 724.992 1122.171 724.992 C 1122.178 724.988 1122.187 724.988 1122.193 724.985 C 1122.203 724.982 1122.214 724.978 1122.225 724.975 C 1122.23 724.975 1122.233 724.975 1122.236 724.971 L 1122.246 724.971 C 1122.274 724.961 1122.301 724.949 1122.327 724.934 C 1122.33 724.934 1122.33 724.934 1122.333 724.931 C 1122.336 724.931 1122.339 724.931 1122.342 724.927 L 1122.361 724.918 C 1122.378 724.908 1122.394 724.898 1122.411 724.887 C 1122.416 724.885 1122.419 724.881 1122.423 724.878 C 1122.426 724.878 1122.429 724.874 1122.432 724.874 C 1122.445 724.864 1122.457 724.857 1122.47 724.848 L 1122.476 724.837 L 1139.972 711.133 C 1140.261 710.905 1140.373 710.5 1140.249 710.139 L 1137.868 703.305 C 1137.865 703.298 1137.862 703.29 1137.862 703.281 L 1133.088 689.567 C 1132.973 689.236 1132.681 689.016 1132.353 689.012 L 1132.352 689.012 Z  M 1108.528 704.44 L 1115.216 704.44 L 1119.874 719.882 L 1108.528 704.44 Z  M 1128.784 704.44 L 1135.473 704.44 L 1124.126 719.882 L 1128.784 704.44 Z  M 1107.132 705.304 L 1117.773 719.785 L 1105.455 710.132 L 1107.132 705.304 Z  M 1136.868 705.304 L 1138.546 710.132 L 1126.227 719.785 L 1136.868 705.304 Z " fill="rgb(34,41,51)"/><path d=" M 9.2 2 C 5.228 2 2 5.228 2 9.2 L 2 30.8 C 2 34.772 5.228 38 9.2 38 L 30.8 38 C 34.772 38 38 34.772 38 30.8 L 38 9.2 C 38 5.228 34.772 2 30.8 2 L 9.2 2 Z  M 31.16 6.32 L 33.32 6.32 C 33.913 6.32 34.4 6.807 34.4 7.4 L 34.4 9.56 C 34.4 10.153 33.913 10.64 33.32 10.64 L 31.16 10.64 C 30.567 10.64 30.08 10.153 30.08 9.56 L 30.08 7.4 C 30.08 6.807 30.567 6.32 31.16 6.32 Z  M 20 7.76 C 24.666 7.76 28.736 10.387 30.8 14.24 L 33.68 14.24 L 33.68 30.642 C 33.681 31.448 33.361 32.221 32.791 32.791 C 32.221 33.361 31.448 33.681 30.642 33.68 L 9.358 33.68 C 8.552 33.681 7.779 33.361 7.209 32.791 C 6.639 32.221 6.319 31.448 6.32 30.642 L 6.32 14.24 L 9.2 14.24 C 11.264 10.387 15.332 7.76 20 7.76 Z  M 20 9.2 C 14.046 9.2 9.2 14.046 9.2 20 C 9.2 25.954 14.046 30.8 20 30.8 C 25.954 30.8 30.8 25.954 30.8 20 C 30.8 14.046 25.954 9.2 20 9.2 Z  M 20 12.8 C 23.974 12.8 27.2 16.023 27.2 20 C 27.2 23.977 23.974 27.2 20 27.2 C 16.023 27.2 12.8 23.977 12.8 20 C 12.8 16.023 16.023 12.8 20 12.8 Z " fill="rgb(34,41,51)"/><path d=" M 1297.291 689.015 C 1296.839 689.051 1296.395 689.167 1295.977 689.359 L 1295.971 689.359 C 1295.57 689.533 1293.662 690.412 1290.762 691.744 L 1280.368 696.538 C 1272.911 699.976 1265.579 703.362 1265.579 703.362 L 1265.667 703.325 C 1265.667 703.325 1265.161 703.507 1264.633 703.903 C 1264.307 704.13 1264.026 704.428 1263.808 704.777 C 1263.549 705.194 1263.341 705.83 1263.418 706.489 C 1263.545 707.602 1264.204 708.27 1264.677 708.638 C 1265.156 709.011 1265.612 709.185 1265.612 709.185 L 1265.623 709.185 L 1272.498 711.722 C 1272.806 712.806 1274.593 719.238 1275.023 720.72 C 1275.276 721.605 1275.522 722.158 1275.831 722.581 C 1275.98 722.797 1276.155 722.977 1276.364 723.122 C 1276.473 723.191 1276.59 723.246 1276.711 723.285 L 1276.64 723.267 C 1276.661 723.273 1276.678 723.292 1276.694 723.298 C 1276.75 723.315 1276.788 723.321 1276.86 723.333 C 1277.948 723.694 1278.823 722.954 1278.823 722.954 L 1278.872 722.911 L 1282.931 718.863 L 1289.734 724.579 L 1289.889 724.652 C 1291.307 725.333 1292.743 724.954 1293.502 724.285 C 1294.266 723.611 1294.563 722.749 1294.563 722.749 L 1294.613 722.61 L 1299.87 693.116 C 1300.019 692.389 1300.057 691.707 1299.892 691.046 C 1299.723 690.376 1299.33 689.8 1298.793 689.431 C 1298.341 689.131 1297.818 688.986 1297.291 689.015 Z  M 1297.148 692.176 C 1297.143 692.273 1297.16 692.262 1297.12 692.449 L 1297.12 692.466 L 1291.912 721.653 C 1291.89 721.694 1291.852 721.785 1291.747 721.876 C 1291.638 721.972 1291.55 722.032 1291.093 721.833 L 1282.772 714.847 L 1277.745 719.864 L 1278.801 712.479 L 1292.397 698.602 C 1292.957 698.032 1292.77 697.911 1292.77 697.911 C 1292.809 697.211 1291.923 697.706 1291.923 697.706 L 1274.78 709.336 L 1274.775 709.306 L 1266.558 706.276 L 1266.558 706.27 L 1266.537 706.265 C 1266.551 706.26 1266.565 706.254 1266.579 706.247 L 1266.624 706.222 L 1266.668 706.205 C 1266.668 706.205 1274.005 702.819 1281.462 699.381 C 1285.196 697.659 1288.958 695.924 1291.852 694.586 C 1293.568 693.795 1295.285 693.008 1297.005 692.227 C 1297.12 692.177 1297.065 692.177 1297.148 692.177 L 1297.148 692.176 Z " fill="rgb(34,41,51)"/></g></g></svg>