<svg xmlns="http://www.w3.org/2000/svg" xmlns:xlink="http://www.w3.org/1999/xlink" style="isolation:isolate" viewBox="0 0 40 40" width="40pt" height="40pt"><defs><clipPath id="_clipPath_y83bTdFSqLuY0ohGyVGA0i1WBdsfBAj5"><rect width="40" height="40"/></clipPath></defs><g clip-path="url(#_clipPath_y83bTdFSqLuY0ohGyVGA0i1WBdsfBAj5)"><path d=" M 6.65 2 C 3.933 2 1.701 4.196 1.701 6.868 L 1.701 33.143 C 1.701 35.804 3.933 38 6.65 38 L 33.361 38 C 36.067 38 38.299 35.804 38.299 33.143 L 38.299 6.868 C 38.299 4.196 36.067 2 33.361 2 L 6.65 2 Z  M 6.65 4.769 L 33.361 4.769 C 34.549 4.769 35.484 5.689 35.484 6.868 L 35.484 33.143 C 35.489 33.698 35.267 34.232 34.868 34.625 C 34.469 35.018 33.926 35.236 33.361 35.231 L 6.65 35.231 C 6.084 35.238 5.538 35.021 5.137 34.628 C 4.735 34.235 4.512 33.7 4.516 33.143 L 4.516 6.868 C 4.516 5.689 5.451 4.769 6.65 4.769 Z  M 10.147 7.538 C 8.598 7.538 7.331 8.785 7.331 10.308 C 7.331 11.831 8.598 13.077 10.147 13.077 C 11.695 13.077 12.962 11.831 12.962 10.308 C 12.962 8.785 11.695 7.538 10.147 7.538 Z  M 7.331 15.846 L 7.331 32.462 L 12.962 32.462 L 12.962 15.846 L 7.331 15.846 Z  M 15.777 15.846 L 15.777 32.462 L 21.408 32.462 L 21.408 25.04 C 21.408 22.736 21.627 20.67 24.442 20.67 C 27.215 20.67 27.038 23.149 27.038 25.192 L 27.038 32.462 L 32.669 32.462 L 32.669 24.265 C 32.669 19.502 31.655 15.846 26.168 15.846 C 23.53 15.846 22.199 16.885 21.472 18.269 L 21.408 18.269 L 21.408 15.846 L 15.777 15.846 Z " fill="rgb(34,41,51)"/></g></svg>