<?xml version="1.0" encoding="UTF-8" standalone="no"?><!-- Generator: Gravit.io --><svg xmlns="http://www.w3.org/2000/svg" xmlns:xlink="http://www.w3.org/1999/xlink" style="isolation:isolate" viewBox="0 0 40 40" width="40pt" height="40pt"><defs><clipPath id="_clipPath_80Lwtf87oaf6G53eP6uVAUKmGkXB5YWr"><rect width="40" height="40"/></clipPath></defs><g clip-path="url(#_clipPath_80Lwtf87oaf6G53eP6uVAUKmGkXB5YWr)"><path d=" M 34.4 2 L 5.6 2 C 3.616 2 2 3.616 2 5.6 L 2 34.4 C 2 36.384 3.616 38 5.6 38 L 34.4 38 C 36.384 38 38 36.384 38 34.4 L 38 5.6 C 38 3.616 36.384 2 34.4 2 Z  M 30.084 14.24 L 30.084 14.96 C 30.084 21.8 24.858 29.716 15.316 29.716 C 12.442 29.716 9.742 28.816 7.4 27.384 L 8.66 27.384 C 11 27.384 13.34 26.484 15.14 25.216 C 12.8 25.216 11 23.6 10.284 21.616 C 10.642 21.616 11 21.8 11.184 21.8 C 11.716 21.8 12.084 21.8 12.616 21.616 C 10.284 21.084 8.484 19.1 8.484 16.584 C 9.2 16.942 9.916 17.116 10.816 17.3 C 9.384 16.04 8.484 14.6 8.484 12.8 C 8.484 11.9 8.658 11 9.2 10.284 C 11.716 13.342 15.5 15.5 19.816 15.684 C 19.816 15.316 19.642 14.958 19.642 14.416 C 19.644 11.536 21.978 9.202 24.858 9.2 C 26.3 9.2 27.742 9.74 28.642 10.816 C 29.9 10.642 30.982 10.1 31.882 9.558 C 31.516 10.818 30.616 11.718 29.542 12.442 C 30.616 12.258 31.516 12.082 32.6 11.542 C 31.903 12.564 31.054 13.474 30.084 14.242 L 30.084 14.24 Z " fill="rgb(34,41,51)"/></g></svg>